<svg width="370" height="385" viewBox="0 0 370 385" fill="none" xmlns="http://www.w3.org/2000/svg">
<g filter="url(#filter0_dd_1367_10384)">
<rect x="16.5" y="7" width="337" height="111" rx="8" fill="#FFFDFD"/>
<rect x="17" y="7.5" width="336" height="110" rx="7.5" stroke="#BDBDBD"/>
<path d="M46.8068 53H42.098V38.4545H46.956C48.3812 38.4545 49.6051 38.7457 50.6278 39.3281C51.6506 39.9058 52.4342 40.7367 52.9787 41.821C53.5279 42.9006 53.8026 44.1955 53.8026 45.706C53.8026 47.2211 53.5256 48.5232 52.9716 49.6122C52.4223 50.7012 51.6269 51.5393 50.5852 52.1264C49.5436 52.7088 48.2841 53 46.8068 53ZM44.2926 51.0824H46.6861C47.794 51.0824 48.715 50.8741 49.4489 50.4574C50.1828 50.036 50.732 49.4276 51.0966 48.6321C51.4612 47.8319 51.6435 46.8565 51.6435 45.706C51.6435 44.5649 51.4612 43.5966 51.0966 42.8011C50.7367 42.0057 50.1993 41.402 49.4844 40.9901C48.7694 40.5781 47.8816 40.3722 46.821 40.3722H44.2926V51.0824ZM61.0929 53.2202C60.018 53.2202 59.0924 52.9905 58.3159 52.5312C57.5441 52.0672 56.9475 51.4162 56.5261 50.5781C56.1094 49.7353 55.9011 48.7481 55.9011 47.6165C55.9011 46.4991 56.1094 45.5142 56.5261 44.6619C56.9475 43.8097 57.5346 43.1444 58.2875 42.6662C59.045 42.188 59.9304 41.9489 60.9437 41.9489C61.5592 41.9489 62.1558 42.0507 62.7335 42.2543C63.3111 42.4579 63.8296 42.7775 64.2889 43.2131C64.7482 43.6487 65.1104 44.2145 65.3755 44.9105C65.6407 45.6018 65.7733 46.4422 65.7733 47.4318V48.1847H57.1014V46.5938H63.6923C63.6923 46.035 63.5787 45.5402 63.3514 45.1094C63.1241 44.6738 62.8045 44.3305 62.3926 44.0795C61.9854 43.8286 61.5072 43.7031 60.9579 43.7031C60.3613 43.7031 59.8405 43.8499 59.3954 44.1435C58.9551 44.4323 58.6142 44.8111 58.3727 45.2798C58.1359 45.7438 58.0176 46.2481 58.0176 46.7926V48.0355C58.0176 48.7647 58.1454 49.3849 58.4011 49.8963C58.6615 50.4077 59.0237 50.7983 59.4877 51.0682C59.9518 51.3333 60.4939 51.4659 61.1142 51.4659C61.5166 51.4659 61.8836 51.4091 62.215 51.2955C62.5465 51.1771 62.8329 51.0019 63.0744 50.7699C63.3159 50.5379 63.5005 50.2514 63.6284 49.9105L65.6383 50.2727C65.4773 50.8646 65.1885 51.383 64.7718 51.8281C64.3599 52.2685 63.8414 52.6117 63.2164 52.858C62.5962 53.0994 61.8883 53.2202 61.0929 53.2202ZM68.3299 53V38.4545H70.4535V43.8594H70.5813C70.7044 43.6321 70.882 43.3693 71.114 43.071C71.346 42.7727 71.668 42.5123 72.0799 42.2898C72.4918 42.0625 73.0363 41.9489 73.7134 41.9489C74.5941 41.9489 75.3801 42.1714 76.0714 42.6165C76.7627 43.0616 77.3048 43.7031 77.6978 44.5412C78.0955 45.3793 78.2944 46.3878 78.2944 47.5668C78.2944 48.7457 78.0979 49.7566 77.7049 50.5994C77.3119 51.4375 76.7721 52.0838 76.0856 52.5384C75.399 52.9882 74.6154 53.2131 73.7347 53.2131C73.0718 53.2131 72.5297 53.1018 72.1083 52.8793C71.6916 52.6567 71.3649 52.3963 71.1282 52.098C70.8914 51.7997 70.7091 51.5346 70.5813 51.3026H70.4037V53H68.3299ZM70.4109 47.5455C70.4109 48.3125 70.5221 48.9848 70.7447 49.5625C70.9672 50.1402 71.2892 50.5923 71.7106 50.919C72.132 51.241 72.6481 51.402 73.2589 51.402C73.8933 51.402 74.4236 51.2339 74.8498 50.8977C75.2759 50.5568 75.5979 50.0952 75.8157 49.5128C76.0382 48.9304 76.1495 48.2746 76.1495 47.5455C76.1495 46.8258 76.0406 46.1795 75.8228 45.6065C75.6097 45.0336 75.2877 44.5814 74.8569 44.25C74.4307 43.9186 73.8981 43.7528 73.2589 43.7528C72.6433 43.7528 72.1225 43.9115 71.6964 44.2287C71.275 44.5459 70.9554 44.9886 70.7376 45.5568C70.5198 46.125 70.4109 46.7879 70.4109 47.5455ZM85.8013 42.0909V43.7955H79.8425V42.0909H85.8013ZM81.4405 39.4773H83.5641V49.7969C83.5641 50.2088 83.6256 50.5189 83.7487 50.7273C83.8718 50.9309 84.0305 51.0705 84.2246 51.1463C84.4235 51.2173 84.6389 51.2528 84.8709 51.2528C85.0413 51.2528 85.1905 51.241 85.3183 51.2173C85.4462 51.1937 85.5456 51.1747 85.6166 51.1605L86.0002 52.9148C85.8771 52.9621 85.7019 53.0095 85.4746 53.0568C85.2473 53.1089 84.9632 53.1373 84.6223 53.142C84.0636 53.1515 83.5428 53.0521 83.0598 52.8438C82.5769 52.6354 82.1862 52.3134 81.8879 51.8778C81.5896 51.4422 81.4405 50.8954 81.4405 50.2372V39.4773ZM94.2368 45.9332V47.7727H87.788V45.9332H94.2368ZM102.189 42.0909V43.7955H96.2306V42.0909H102.189ZM97.8286 39.4773H99.9522V49.7969C99.9522 50.2088 100.014 50.5189 100.137 50.7273C100.26 50.9309 100.419 51.0705 100.613 51.1463C100.812 51.2173 101.027 51.2528 101.259 51.2528C101.429 51.2528 101.579 51.241 101.706 51.2173C101.834 51.1937 101.934 51.1747 102.005 51.1605L102.388 52.9148C102.265 52.9621 102.09 53.0095 101.863 53.0568C101.635 53.1089 101.351 53.1373 101.01 53.142C100.452 53.1515 99.9309 53.0521 99.4479 52.8438C98.965 52.6354 98.5744 52.3134 98.2761 51.8778C97.9778 51.4422 97.8286 50.8954 97.8286 50.2372V39.4773ZM109.046 53.2202C108.024 53.2202 107.131 52.9858 106.369 52.517C105.607 52.0483 105.015 51.3925 104.593 50.5497C104.172 49.7069 103.961 48.7221 103.961 47.5952C103.961 46.4635 104.172 45.474 104.593 44.6264C105.015 43.7789 105.607 43.1207 106.369 42.652C107.131 42.1832 108.024 41.9489 109.046 41.9489C110.069 41.9489 110.962 42.1832 111.724 42.652C112.486 43.1207 113.078 43.7789 113.5 44.6264C113.921 45.474 114.132 46.4635 114.132 47.5952C114.132 48.7221 113.921 49.7069 113.5 50.5497C113.078 51.3925 112.486 52.0483 111.724 52.517C110.962 52.9858 110.069 53.2202 109.046 53.2202ZM109.054 51.4375C109.716 51.4375 110.266 51.2623 110.701 50.9119C111.137 50.5616 111.459 50.0952 111.667 49.5128C111.88 48.9304 111.987 48.2888 111.987 47.5881C111.987 46.892 111.88 46.2528 111.667 45.6705C111.459 45.0833 111.137 44.6122 110.701 44.2571C110.266 43.902 109.716 43.7244 109.054 43.7244C108.386 43.7244 107.832 43.902 107.392 44.2571C106.956 44.6122 106.632 45.0833 106.419 45.6705C106.21 46.2528 106.106 46.892 106.106 47.5881C106.106 48.2888 106.21 48.9304 106.419 49.5128C106.632 50.0952 106.956 50.5616 107.392 50.9119C107.832 51.2623 108.386 51.4375 109.054 51.4375ZM122.96 45.9332V47.7727H116.511V45.9332H122.96ZM128.185 38.4545V53H125.99V38.4545H128.185ZM133.364 46.5227V53H131.241V42.0909H133.279V43.8665H133.414C133.665 43.2888 134.058 42.8248 134.593 42.4744C135.133 42.1241 135.812 41.9489 136.631 41.9489C137.375 41.9489 138.026 42.1051 138.584 42.4176C139.143 42.7254 139.576 43.1847 139.884 43.7955C140.192 44.4062 140.346 45.1615 140.346 46.0611V53H138.222V46.3168C138.222 45.526 138.016 44.9081 137.604 44.4631C137.192 44.0133 136.626 43.7884 135.907 43.7884C135.414 43.7884 134.976 43.8949 134.593 44.108C134.214 44.321 133.913 44.6335 133.691 45.0455C133.473 45.4527 133.364 45.9451 133.364 46.5227ZM147.819 53.2202C146.763 53.2202 145.854 52.9811 145.092 52.5028C144.334 52.0199 143.752 51.3546 143.344 50.5071C142.937 49.6596 142.734 48.6889 142.734 47.5952C142.734 46.4872 142.942 45.5095 143.359 44.6619C143.775 43.8097 144.362 43.1444 145.12 42.6662C145.878 42.188 146.77 41.9489 147.798 41.9489C148.626 41.9489 149.365 42.1027 150.013 42.4105C150.662 42.7135 151.185 43.1397 151.583 43.6889C151.985 44.2382 152.225 44.8797 152.3 45.6136H150.234C150.12 45.1023 149.86 44.6619 149.452 44.2926C149.05 43.9233 148.51 43.7386 147.833 43.7386C147.241 43.7386 146.723 43.8949 146.278 44.2074C145.837 44.5152 145.494 44.9555 145.248 45.5284C145.002 46.0966 144.878 46.7689 144.878 47.5455C144.878 48.3409 144.999 49.0275 145.241 49.6051C145.482 50.1828 145.823 50.6302 146.263 50.9474C146.709 51.2647 147.232 51.4233 147.833 51.4233C148.235 51.4233 148.6 51.3499 148.927 51.2031C149.258 51.0516 149.535 50.8362 149.758 50.5568C149.985 50.2775 150.144 49.9413 150.234 49.5483H152.3C152.225 50.2538 151.995 50.8835 151.611 51.4375C151.228 51.9915 150.714 52.4271 150.07 52.7443C149.431 53.0616 148.681 53.2202 147.819 53.2202ZM159.196 53.2202C158.174 53.2202 157.281 52.9858 156.519 52.517C155.757 52.0483 155.165 51.3925 154.743 50.5497C154.322 49.7069 154.111 48.7221 154.111 47.5952C154.111 46.4635 154.322 45.474 154.743 44.6264C155.165 43.7789 155.757 43.1207 156.519 42.652C157.281 42.1832 158.174 41.9489 159.196 41.9489C160.219 41.9489 161.112 42.1832 161.874 42.652C162.636 43.1207 163.228 43.7789 163.65 44.6264C164.071 45.474 164.282 46.4635 164.282 47.5952C164.282 48.7221 164.071 49.7069 163.65 50.5497C163.228 51.3925 162.636 52.0483 161.874 52.517C161.112 52.9858 160.219 53.2202 159.196 53.2202ZM159.204 51.4375C159.866 51.4375 160.416 51.2623 160.851 50.9119C161.287 50.5616 161.609 50.0952 161.817 49.5128C162.03 48.9304 162.137 48.2888 162.137 47.5881C162.137 46.892 162.03 46.2528 161.817 45.6705C161.609 45.0833 161.287 44.6122 160.851 44.2571C160.416 43.902 159.866 43.7244 159.204 43.7244C158.536 43.7244 157.982 43.902 157.542 44.2571C157.106 44.6122 156.782 45.0833 156.569 45.6705C156.36 46.2528 156.256 46.892 156.256 47.5881C156.256 48.2888 156.36 48.9304 156.569 49.5128C156.782 50.0952 157.106 50.5616 157.542 50.9119C157.982 51.2623 158.536 51.4375 159.204 51.4375ZM166.682 53V42.0909H168.72V43.8665H168.855C169.083 43.2652 169.454 42.7964 169.97 42.4602C170.487 42.1193 171.104 41.9489 171.824 41.9489C172.553 41.9489 173.164 42.1193 173.657 42.4602C174.154 42.8011 174.521 43.2699 174.757 43.8665H174.871C175.131 43.2841 175.546 42.8201 176.114 42.4744C176.682 42.1241 177.359 41.9489 178.145 41.9489C179.135 41.9489 179.942 42.259 180.567 42.8793C181.197 43.4995 181.512 44.4347 181.512 45.6847V53H179.388V45.8835C179.388 45.1449 179.187 44.6098 178.784 44.2784C178.382 43.947 177.901 43.7812 177.343 43.7812C176.651 43.7812 176.114 43.9943 175.73 44.4205C175.347 44.8419 175.155 45.384 175.155 46.0469V53H173.039V45.7486C173.039 45.1567 172.854 44.6809 172.485 44.321C172.115 43.9612 171.635 43.7812 171.043 43.7812C170.64 43.7812 170.269 43.8878 169.928 44.1009C169.592 44.3092 169.319 44.6004 169.111 44.9744C168.907 45.3485 168.806 45.7817 168.806 46.2741V53H166.682ZM189.09 53.2202C188.015 53.2202 187.089 52.9905 186.313 52.5312C185.541 52.0672 184.944 51.4162 184.523 50.5781C184.106 49.7353 183.898 48.7481 183.898 47.6165C183.898 46.4991 184.106 45.5142 184.523 44.6619C184.944 43.8097 185.531 43.1444 186.284 42.6662C187.042 42.188 187.927 41.9489 188.94 41.9489C189.556 41.9489 190.153 42.0507 190.73 42.2543C191.308 42.4579 191.826 42.7775 192.286 43.2131C192.745 43.6487 193.107 44.2145 193.372 44.9105C193.637 45.6018 193.77 46.4422 193.77 47.4318V48.1847H185.098V46.5938H191.689C191.689 46.035 191.575 45.5402 191.348 45.1094C191.121 44.6738 190.801 44.3305 190.389 44.0795C189.982 43.8286 189.504 43.7031 188.955 43.7031C188.358 43.7031 187.837 43.8499 187.392 44.1435C186.952 44.4323 186.611 44.8111 186.369 45.2798C186.133 45.7438 186.014 46.2481 186.014 46.7926V48.0355C186.014 48.7647 186.142 49.3849 186.398 49.8963C186.658 50.4077 187.02 50.7983 187.484 51.0682C187.948 51.3333 188.491 51.4659 189.111 51.4659C189.513 51.4659 189.88 51.4091 190.212 51.2955C190.543 51.1771 190.83 51.0019 191.071 50.7699C191.313 50.5379 191.497 50.2514 191.625 49.9105L193.635 50.2727C193.474 50.8646 193.185 51.383 192.769 51.8281C192.357 52.2685 191.838 52.6117 191.213 52.858C190.593 53.0994 189.885 53.2202 189.09 53.2202ZM201.65 53V38.4545H206.834C207.961 38.4545 208.896 38.6487 209.64 39.0369C210.388 39.4252 210.946 39.9626 211.316 40.6491C211.685 41.331 211.87 42.1193 211.87 43.0142C211.87 43.9044 211.683 44.688 211.309 45.3651C210.939 46.0374 210.381 46.5606 209.633 46.9347C208.889 47.3087 207.954 47.4957 206.827 47.4957H202.9V45.6065H206.628C207.338 45.6065 207.916 45.5047 208.361 45.3011C208.811 45.0975 209.14 44.8016 209.348 44.4134C209.557 44.0251 209.661 43.5587 209.661 43.0142C209.661 42.465 209.554 41.9891 209.341 41.5866C209.133 41.1842 208.804 40.8764 208.354 40.6634C207.909 40.4455 207.324 40.3366 206.6 40.3366H203.844V53H201.65ZM208.83 46.4375L212.424 53H209.924L206.401 46.4375H208.83ZM217.574 53.2415C216.883 53.2415 216.258 53.1136 215.699 52.858C215.141 52.5975 214.698 52.2211 214.371 51.7287C214.049 51.2363 213.888 50.6326 213.888 49.9176C213.888 49.3021 214.007 48.7955 214.243 48.3977C214.48 48 214.8 47.6851 215.202 47.4531C215.605 47.2211 216.055 47.0459 216.552 46.9276C217.049 46.8092 217.556 46.7192 218.072 46.6577C218.725 46.5819 219.255 46.5204 219.663 46.473C220.07 46.4209 220.366 46.3381 220.55 46.2244C220.735 46.1108 220.827 45.9261 220.827 45.6705V45.6207C220.827 45.0005 220.652 44.5199 220.302 44.179C219.956 43.8381 219.44 43.6676 218.753 43.6676C218.038 43.6676 217.475 43.8262 217.063 44.1435C216.656 44.456 216.374 44.804 216.218 45.1875L214.222 44.733C214.459 44.0701 214.805 43.535 215.259 43.1278C215.718 42.7159 216.246 42.4176 216.843 42.233C217.44 42.0436 218.067 41.9489 218.725 41.9489C219.161 41.9489 219.622 42.0009 220.11 42.1051C220.602 42.2045 221.062 42.3892 221.488 42.6591C221.919 42.929 222.271 43.3149 222.546 43.8168C222.821 44.3139 222.958 44.9602 222.958 45.7557V53H220.884V51.5085H220.799C220.662 51.7831 220.456 52.053 220.181 52.3182C219.906 52.5833 219.554 52.8035 219.123 52.9787C218.692 53.1539 218.176 53.2415 217.574 53.2415ZM218.036 51.5369C218.623 51.5369 219.125 51.4209 219.542 51.1889C219.963 50.9569 220.283 50.6539 220.501 50.2798C220.723 49.901 220.834 49.4962 220.834 49.0653V47.6591C220.759 47.7348 220.612 47.8059 220.394 47.8722C220.181 47.9337 219.937 47.9882 219.663 48.0355C219.388 48.0781 219.12 48.1184 218.86 48.1562C218.6 48.1894 218.382 48.2178 218.207 48.2415C217.795 48.2936 217.418 48.3812 217.077 48.5043C216.741 48.6274 216.471 48.8049 216.268 49.0369C216.069 49.2642 215.969 49.5672 215.969 49.946C215.969 50.4716 216.163 50.8693 216.552 51.1392C216.94 51.4044 217.435 51.5369 218.036 51.5369ZM230.909 42.0909V43.7955H224.95V42.0909H230.909ZM226.548 39.4773H228.672V49.7969C228.672 50.2088 228.733 50.5189 228.856 50.7273C228.979 50.9309 229.138 51.0705 229.332 51.1463C229.531 51.2173 229.746 51.2528 229.978 51.2528C230.149 51.2528 230.298 51.241 230.426 51.2173C230.554 51.1937 230.653 51.1747 230.724 51.1605L231.108 52.9148C230.985 52.9621 230.809 53.0095 230.582 53.0568C230.355 53.1089 230.071 53.1373 229.73 53.142C229.171 53.1515 228.65 53.0521 228.167 52.8438C227.684 52.6354 227.294 52.3134 226.995 51.8778C226.697 51.4422 226.548 50.8954 226.548 50.2372V39.4773ZM233.288 53V42.0909H235.411V53H233.288ZM234.36 40.4077C233.991 40.4077 233.674 40.2846 233.409 40.0384C233.148 39.7874 233.018 39.4891 233.018 39.1435C233.018 38.7931 233.148 38.4948 233.409 38.2486C233.674 37.9976 233.991 37.8722 234.36 37.8722C234.73 37.8722 235.044 37.9976 235.305 38.2486C235.57 38.4948 235.703 38.7931 235.703 39.1435C235.703 39.4891 235.57 39.7874 235.305 40.0384C235.044 40.2846 234.73 40.4077 234.36 40.4077ZM242.894 53.2202C241.871 53.2202 240.978 52.9858 240.216 52.517C239.454 52.0483 238.862 51.3925 238.44 50.5497C238.019 49.7069 237.808 48.7221 237.808 47.5952C237.808 46.4635 238.019 45.474 238.44 44.6264C238.862 43.7789 239.454 43.1207 240.216 42.652C240.978 42.1832 241.871 41.9489 242.894 41.9489C243.916 41.9489 244.809 42.1832 245.571 42.652C246.333 43.1207 246.925 43.7789 247.347 44.6264C247.768 45.474 247.979 46.4635 247.979 47.5952C247.979 48.7221 247.768 49.7069 247.347 50.5497C246.925 51.3925 246.333 52.0483 245.571 52.517C244.809 52.9858 243.916 53.2202 242.894 53.2202ZM242.901 51.4375C243.563 51.4375 244.113 51.2623 244.548 50.9119C244.984 50.5616 245.306 50.0952 245.514 49.5128C245.727 48.9304 245.834 48.2888 245.834 47.5881C245.834 46.892 245.727 46.2528 245.514 45.6705C245.306 45.0833 244.984 44.6122 244.548 44.2571C244.113 43.902 243.563 43.7244 242.901 43.7244C242.233 43.7244 241.679 43.902 241.239 44.2571C240.803 44.6122 240.479 45.0833 240.266 45.6705C240.057 46.2528 239.953 46.892 239.953 47.5881C239.953 48.2888 240.057 48.9304 240.266 49.5128C240.479 50.0952 240.803 50.5616 241.239 50.9119C241.679 51.2623 242.233 51.4375 242.901 51.4375Z" fill="#757575"/>
<path d="M48.3416 88.2386C47.0746 88.2386 45.9496 88.0256 44.9666 87.5994C43.9893 87.1733 43.2223 86.5909 42.6655 85.8523C42.1143 85.108 41.8416 84.2642 41.8473 83.321C41.8416 82.5881 42.0007 81.9148 42.3246 81.3011C42.6484 80.6875 43.0859 80.1761 43.6371 79.767C44.1939 79.3523 44.8132 79.0881 45.495 78.9744V78.8551C44.5973 78.6562 43.87 78.1989 43.3132 77.483C42.7621 76.7614 42.4893 75.929 42.495 74.9858C42.4893 74.0881 42.7393 73.2869 43.245 72.5824C43.7507 71.8778 44.4439 71.3239 45.3246 70.9205C46.2053 70.5114 47.2109 70.3068 48.3416 70.3068C49.4609 70.3068 50.4581 70.5114 51.3331 70.9205C52.2138 71.3239 52.907 71.8778 53.4126 72.5824C53.924 73.2869 54.1797 74.0881 54.1797 74.9858C54.1797 75.929 53.8984 76.7614 53.3359 77.483C52.7791 78.1989 52.0604 78.6562 51.1797 78.8551V78.9744C51.8615 79.0881 52.4751 79.3523 53.0206 79.767C53.5717 80.1761 54.0092 80.6875 54.3331 81.3011C54.6626 81.9148 54.8274 82.5881 54.8274 83.321C54.8274 84.2642 54.549 85.108 53.9922 85.8523C53.4354 86.5909 52.6683 87.1733 51.6911 87.5994C50.7195 88.0256 49.603 88.2386 48.3416 88.2386ZM48.3416 85.8011C48.995 85.8011 49.5632 85.6903 50.0462 85.4688C50.5291 85.2415 50.9041 84.9233 51.1712 84.5142C51.4382 84.1051 51.5746 83.6335 51.5803 83.0994C51.5746 82.5426 51.4297 82.0511 51.1456 81.625C50.8672 81.1932 50.4837 80.8551 49.995 80.6108C49.5121 80.3665 48.9609 80.2443 48.3416 80.2443C47.7166 80.2443 47.1598 80.3665 46.6712 80.6108C46.1825 80.8551 45.7962 81.1932 45.5121 81.625C45.2337 82.0511 45.0973 82.5426 45.103 83.0994C45.0973 83.6335 45.228 84.1051 45.495 84.5142C45.7621 84.9176 46.1371 85.233 46.62 85.4602C47.1087 85.6875 47.6825 85.8011 48.3416 85.8011ZM48.3416 77.8494C48.8757 77.8494 49.3473 77.7415 49.7564 77.5256C50.1712 77.3097 50.4979 77.0085 50.7365 76.6222C50.9751 76.2358 51.0973 75.7898 51.103 75.2841C51.0973 74.7841 50.978 74.3466 50.745 73.9716C50.5121 73.5909 50.1882 73.2983 49.7734 73.0938C49.3587 72.8835 48.8814 72.7784 48.3416 72.7784C47.7905 72.7784 47.3047 72.8835 46.8842 73.0938C46.4695 73.2983 46.1456 73.5909 45.9126 73.9716C45.6854 74.3466 45.5746 74.7841 45.5803 75.2841C45.5746 75.7898 45.6882 76.2358 45.9212 76.6222C46.1598 77.0028 46.4865 77.304 46.9013 77.5256C47.3217 77.7415 47.8018 77.8494 48.3416 77.8494ZM58.2685 88L65.6918 73.3068V73.1875H57.0753V70.5455H68.9645V73.2472L61.5497 88H58.2685ZM81.0476 84.7273V83.8068C81.0476 83.1307 81.1896 82.5085 81.4737 81.9403C81.7635 81.3722 82.1839 80.9148 82.7351 80.5682C83.2862 80.2216 83.9538 80.0483 84.7379 80.0483C85.5447 80.0483 86.2209 80.2216 86.7663 80.5682C87.3118 80.9091 87.7237 81.3636 88.0021 81.9318C88.2862 82.5 88.4283 83.125 88.4283 83.8068V84.7273C88.4283 85.4034 88.2862 86.0256 88.0021 86.5938C87.718 87.1619 87.3004 87.6193 86.7493 87.9659C86.2038 88.3125 85.5334 88.4858 84.7379 88.4858C83.9425 88.4858 83.2692 88.3125 82.718 87.9659C82.1669 87.6193 81.7493 87.1619 81.4652 86.5938C81.1868 86.0256 81.0476 85.4034 81.0476 84.7273ZM83.272 83.8068V84.7273C83.272 85.1761 83.38 85.5881 83.5959 85.9631C83.8118 86.3381 84.1925 86.5256 84.7379 86.5256C85.2891 86.5256 85.6669 86.3409 85.8714 85.9716C86.0817 85.5966 86.1868 85.1818 86.1868 84.7273V83.8068C86.1868 83.3523 86.0874 82.9375 85.8885 82.5625C85.6896 82.1818 85.3061 81.9915 84.7379 81.9915C84.2038 81.9915 83.826 82.1818 83.6044 82.5625C83.3828 82.9375 83.272 83.3523 83.272 83.8068ZM72.1754 74.7386V73.8182C72.1754 73.1364 72.3203 72.5114 72.6101 71.9432C72.8999 71.375 73.3203 70.9205 73.8714 70.5795C74.4226 70.233 75.0902 70.0597 75.8743 70.0597C76.6754 70.0597 77.3487 70.233 77.8942 70.5795C78.4453 70.9205 78.8601 71.375 79.1385 71.9432C79.4169 72.5114 79.5561 73.1364 79.5561 73.8182V74.7386C79.5561 75.4205 79.4141 76.0455 79.13 76.6136C78.8516 77.1761 78.4368 77.6278 77.8857 77.9688C77.3345 78.3097 76.6641 78.4801 75.8743 78.4801C75.0732 78.4801 74.397 78.3097 73.8459 77.9688C73.3004 77.6278 72.8857 77.1733 72.6016 76.6051C72.3175 76.0369 72.1754 75.4148 72.1754 74.7386ZM74.4169 73.8182V74.7386C74.4169 75.1932 74.522 75.608 74.7322 75.983C74.9482 76.3523 75.3288 76.5369 75.8743 76.5369C76.4197 76.5369 76.7947 76.3523 76.9993 75.983C77.2095 75.608 77.3146 75.1932 77.3146 74.7386V73.8182C77.3146 73.3636 77.2152 72.9489 77.0163 72.5739C76.8175 72.1932 76.4368 72.0028 75.8743 72.0028C75.3345 72.0028 74.9567 72.1932 74.7408 72.5739C74.5249 72.9545 74.4169 73.3693 74.4169 73.8182ZM73.147 88L85.147 70.5455H87.2777L75.2777 88H73.147Z" fill="#1F1F1F"/>
<circle cx="106.5" cy="79.5" r="6" fill="#FF8282"/>
</g>
<g filter="url(#filter1_dd_1367_10384)">
<rect x="16.5" y="128" width="337" height="111" rx="8" fill="#FFFDFD"/>
<rect x="17" y="128.5" width="336" height="110" rx="7.5" stroke="#BDBDBD"/>
<path d="M43.3267 174H40.9972L46.2315 159.455H48.767L54.0014 174H51.6719L47.5597 162.097H47.446L43.3267 174ZM43.7173 168.304H51.2741V170.151H43.7173V168.304ZM56.1319 159.455H58.7953L63.426 170.761H63.5964L68.2271 159.455H70.8904V174H68.8024V163.474H68.6674L64.3777 173.979H62.6447L58.3549 163.467H58.22V174H56.1319V159.455ZM76.3057 159.455V174H74.1111V159.455H76.3057ZM84.8547 174V159.455H90.0394C91.1663 159.455 92.1014 159.649 92.8448 160.037C93.5929 160.425 94.1516 160.963 94.5209 161.649C94.8902 162.331 95.0749 163.119 95.0749 164.014C95.0749 164.904 94.8879 165.688 94.5138 166.365C94.1445 167.037 93.5858 167.561 92.8377 167.935C92.0943 168.309 91.1592 168.496 90.0323 168.496H86.1047V166.607H89.8334C90.5436 166.607 91.1213 166.505 91.5664 166.301C92.0162 166.098 92.3453 165.802 92.5536 165.413C92.7619 165.025 92.8661 164.559 92.8661 164.014C92.8661 163.465 92.7596 162.989 92.5465 162.587C92.3382 162.184 92.0091 161.876 91.5593 161.663C91.1142 161.446 90.5294 161.337 89.805 161.337H87.0493V174H84.8547ZM92.0351 167.438L95.6289 174H93.1289L89.6061 167.438H92.0351ZM100.78 174.241C100.088 174.241 99.4633 174.114 98.9046 173.858C98.3459 173.598 97.9032 173.221 97.5765 172.729C97.2545 172.236 97.0935 171.633 97.0935 170.918C97.0935 170.302 97.2119 169.795 97.4487 169.398C97.6854 169 98.005 168.685 98.4075 168.453C98.8099 168.221 99.2597 168.046 99.7569 167.928C100.254 167.809 100.761 167.719 101.277 167.658C101.93 167.582 102.46 167.52 102.868 167.473C103.275 167.421 103.571 167.338 103.755 167.224C103.94 167.111 104.032 166.926 104.032 166.67V166.621C104.032 166 103.857 165.52 103.507 165.179C103.161 164.838 102.645 164.668 101.959 164.668C101.244 164.668 100.68 164.826 100.268 165.143C99.8611 165.456 99.5793 165.804 99.4231 166.188L97.4273 165.733C97.6641 165.07 98.0097 164.535 98.4643 164.128C98.9236 163.716 99.4515 163.418 100.048 163.233C100.645 163.044 101.272 162.949 101.93 162.949C102.366 162.949 102.827 163.001 103.315 163.105C103.808 163.205 104.267 163.389 104.693 163.659C105.124 163.929 105.477 164.315 105.751 164.817C106.026 165.314 106.163 165.96 106.163 166.756V174H104.089V172.509H104.004C103.867 172.783 103.661 173.053 103.386 173.318C103.112 173.583 102.759 173.804 102.328 173.979C101.897 174.154 101.381 174.241 100.78 174.241ZM101.241 172.537C101.828 172.537 102.33 172.421 102.747 172.189C103.168 171.957 103.488 171.654 103.706 171.28C103.928 170.901 104.04 170.496 104.04 170.065V168.659C103.964 168.735 103.817 168.806 103.599 168.872C103.386 168.934 103.142 168.988 102.868 169.036C102.593 169.078 102.326 169.118 102.065 169.156C101.805 169.189 101.587 169.218 101.412 169.241C101 169.294 100.623 169.381 100.282 169.504C99.9463 169.627 99.6764 169.805 99.4728 170.037C99.2739 170.264 99.1745 170.567 99.1745 170.946C99.1745 171.472 99.3686 171.869 99.7569 172.139C100.145 172.404 100.64 172.537 101.241 172.537ZM111.145 167.523V174H109.022V163.091H111.06V164.866H111.195C111.446 164.289 111.839 163.825 112.374 163.474C112.914 163.124 113.593 162.949 114.412 162.949C115.156 162.949 115.807 163.105 116.365 163.418C116.924 163.725 117.357 164.185 117.665 164.795C117.973 165.406 118.127 166.161 118.127 167.061V174H116.003V167.317C116.003 166.526 115.797 165.908 115.385 165.463C114.973 165.013 114.408 164.788 113.688 164.788C113.195 164.788 112.757 164.895 112.374 165.108C111.995 165.321 111.694 165.634 111.472 166.045C111.254 166.453 111.145 166.945 111.145 167.523ZM125.579 178.318C124.712 178.318 123.966 178.205 123.341 177.977C122.721 177.75 122.214 177.449 121.822 177.075C121.429 176.701 121.135 176.292 120.941 175.847L122.766 175.094C122.894 175.302 123.064 175.522 123.277 175.754C123.495 175.991 123.789 176.192 124.158 176.358C124.532 176.524 125.013 176.607 125.6 176.607C126.405 176.607 127.07 176.41 127.596 176.017C128.121 175.629 128.384 175.009 128.384 174.156V172.011H128.249C128.121 172.243 127.937 172.501 127.695 172.786C127.458 173.07 127.132 173.316 126.715 173.524C126.298 173.732 125.756 173.837 125.089 173.837C124.227 173.837 123.45 173.635 122.759 173.233C122.072 172.826 121.528 172.227 121.125 171.436C120.728 170.641 120.529 169.663 120.529 168.503C120.529 167.343 120.725 166.348 121.118 165.52C121.516 164.691 122.061 164.057 122.752 163.616C123.443 163.171 124.227 162.949 125.103 162.949C125.78 162.949 126.327 163.062 126.743 163.29C127.16 163.512 127.484 163.773 127.716 164.071C127.953 164.369 128.135 164.632 128.263 164.859H128.42V163.091H130.5V174.241C130.5 175.179 130.283 175.948 129.847 176.55C129.411 177.151 128.822 177.596 128.079 177.885C127.34 178.174 126.507 178.318 125.579 178.318ZM125.557 172.075C126.168 172.075 126.684 171.933 127.106 171.649C127.532 171.36 127.854 170.948 128.072 170.413C128.294 169.874 128.405 169.227 128.405 168.474C128.405 167.741 128.296 167.094 128.079 166.536C127.861 165.977 127.541 165.541 127.12 165.229C126.698 164.911 126.178 164.753 125.557 164.753C124.918 164.753 124.385 164.919 123.959 165.25C123.533 165.577 123.211 166.022 122.993 166.585C122.78 167.149 122.674 167.778 122.674 168.474C122.674 169.189 122.783 169.817 123 170.357C123.218 170.896 123.54 171.318 123.966 171.621C124.397 171.924 124.928 172.075 125.557 172.075ZM138.08 174.22C137.005 174.22 136.08 173.991 135.303 173.531C134.531 173.067 133.935 172.416 133.513 171.578C133.097 170.735 132.888 169.748 132.888 168.616C132.888 167.499 133.097 166.514 133.513 165.662C133.935 164.81 134.522 164.144 135.275 163.666C136.032 163.188 136.918 162.949 137.931 162.949C138.547 162.949 139.143 163.051 139.721 163.254C140.298 163.458 140.817 163.777 141.276 164.213C141.736 164.649 142.098 165.214 142.363 165.911C142.628 166.602 142.761 167.442 142.761 168.432V169.185H134.089V167.594H140.68C140.68 167.035 140.566 166.54 140.339 166.109C140.111 165.674 139.792 165.33 139.38 165.08C138.973 164.829 138.494 164.703 137.945 164.703C137.349 164.703 136.828 164.85 136.383 165.143C135.942 165.432 135.602 165.811 135.36 166.28C135.123 166.744 135.005 167.248 135.005 167.793V169.036C135.005 169.765 135.133 170.385 135.388 170.896C135.649 171.408 136.011 171.798 136.475 172.068C136.939 172.333 137.481 172.466 138.102 172.466C138.504 172.466 138.871 172.409 139.202 172.295C139.534 172.177 139.82 172.002 140.062 171.77C140.303 171.538 140.488 171.251 140.616 170.911L142.626 171.273C142.465 171.865 142.176 172.383 141.759 172.828C141.347 173.268 140.829 173.612 140.204 173.858C139.584 174.099 138.876 174.22 138.08 174.22Z" fill="#757575"/>
<path d="M49.119 203.136H51.9826L53.6786 205.335L54.8889 206.767L57.7951 210.5H54.7269L52.7496 207.994L51.9059 206.801L49.119 203.136ZM58.2127 200.273C58.2127 202.153 57.8604 203.764 57.1559 205.105C56.457 206.44 55.5025 207.463 54.2923 208.173C53.0877 208.884 51.7212 209.239 50.1928 209.239C48.6644 209.239 47.2951 208.884 46.0849 208.173C44.8803 207.457 43.9258 206.432 43.2212 205.097C42.5224 203.756 42.1729 202.148 42.1729 200.273C42.1729 198.392 42.5224 196.784 43.2212 195.449C43.9258 194.108 44.8803 193.082 46.0849 192.372C47.2951 191.662 48.6644 191.307 50.1928 191.307C51.7212 191.307 53.0877 191.662 54.2923 192.372C55.5025 193.082 56.457 194.108 57.1559 195.449C57.8604 196.784 58.2127 198.392 58.2127 200.273ZM55.0337 200.273C55.0337 198.949 54.8264 197.832 54.4116 196.923C54.0025 196.009 53.4343 195.318 52.707 194.852C51.9798 194.381 51.1417 194.145 50.1928 194.145C49.244 194.145 48.4059 194.381 47.6786 194.852C46.9513 195.318 46.3803 196.009 45.9656 196.923C45.5565 197.832 45.3519 198.949 45.3519 200.273C45.3519 201.597 45.5565 202.716 45.9656 203.631C46.3803 204.54 46.9513 205.23 47.6786 205.702C48.4059 206.168 49.244 206.401 50.1928 206.401C51.1417 206.401 51.9798 206.168 52.707 205.702C53.4343 205.23 54.0025 204.54 54.4116 203.631C54.8264 202.716 55.0337 201.597 55.0337 200.273ZM69.4329 203.494V195.909H72.5181V209H69.5266V206.673H69.3903C69.0948 207.406 68.609 208.006 67.9329 208.472C67.2624 208.937 66.4357 209.17 65.4528 209.17C64.5948 209.17 63.8363 208.98 63.1772 208.599C62.5238 208.213 62.0124 207.653 61.6431 206.92C61.2738 206.182 61.0891 205.29 61.0891 204.244V195.909H64.1744V203.767C64.1744 204.597 64.4016 205.256 64.8562 205.744C65.3107 206.233 65.9073 206.477 66.646 206.477C67.1005 206.477 67.5408 206.366 67.967 206.145C68.3931 205.923 68.7425 205.594 69.0153 205.156C69.2937 204.713 69.4329 204.159 69.4329 203.494ZM79.4577 209.264C78.6282 209.264 77.881 209.116 77.2163 208.821C76.5572 208.52 76.0344 208.077 75.6481 207.491C75.2674 206.906 75.0771 206.185 75.0771 205.327C75.0771 204.588 75.2134 203.977 75.4862 203.494C75.7589 203.011 76.131 202.625 76.6026 202.335C77.0742 202.045 77.6055 201.827 78.1964 201.679C78.793 201.526 79.4094 201.415 80.0458 201.347C80.8129 201.267 81.435 201.196 81.9123 201.134C82.3896 201.065 82.7362 200.963 82.9521 200.827C83.1737 200.685 83.2844 200.466 83.2844 200.17V200.119C83.2844 199.477 83.0941 198.98 82.7134 198.628C82.3327 198.276 81.7844 198.099 81.0685 198.099C80.3129 198.099 79.7134 198.264 79.2702 198.594C78.8327 198.923 78.5373 199.312 78.3839 199.761L75.5032 199.352C75.7305 198.557 76.1055 197.892 76.6282 197.358C77.1509 196.818 77.7901 196.415 78.5458 196.148C79.3015 195.875 80.1367 195.739 81.0515 195.739C81.6822 195.739 82.31 195.812 82.935 195.96C83.56 196.108 84.131 196.352 84.6481 196.693C85.1651 197.028 85.5799 197.486 85.8924 198.065C86.2106 198.645 86.3697 199.369 86.3697 200.239V209H83.4038V207.202H83.3015C83.114 207.565 82.8498 207.906 82.5089 208.224C82.1737 208.537 81.7504 208.79 81.239 208.983C80.7333 209.17 80.1396 209.264 79.4577 209.264ZM80.2589 206.997C80.8782 206.997 81.4151 206.875 81.8697 206.631C82.3242 206.381 82.6737 206.051 82.918 205.642C83.168 205.233 83.293 204.787 83.293 204.304V202.761C83.1964 202.841 83.0316 202.915 82.7987 202.983C82.5714 203.051 82.3157 203.111 82.0316 203.162C81.7475 203.213 81.4663 203.259 81.1879 203.298C80.9094 203.338 80.668 203.372 80.4634 203.401C80.0032 203.463 79.5913 203.565 79.2276 203.707C78.864 203.849 78.5771 204.048 78.3668 204.304C78.1566 204.554 78.0515 204.878 78.0515 205.276C78.0515 205.844 78.2589 206.273 78.6737 206.562C79.0884 206.852 79.6168 206.997 80.2589 206.997ZM92.5572 191.545V209H89.4719V191.545H92.5572ZM95.7298 209V195.909H98.815V209H95.7298ZM97.2809 194.051C96.7923 194.051 96.3718 193.889 96.0195 193.565C95.6673 193.236 95.4911 192.841 95.4911 192.381C95.4911 191.915 95.6673 191.52 96.0195 191.196C96.3718 190.866 96.7923 190.702 97.2809 190.702C97.7752 190.702 98.1957 190.866 98.5423 191.196C98.8945 191.52 99.0707 191.915 99.0707 192.381C99.0707 192.841 98.8945 193.236 98.5423 193.565C98.1957 193.889 97.7752 194.051 97.2809 194.051ZM108.618 195.909V198.295H100.88V195.909H108.618ZM102.814 209V194.673C102.814 193.793 102.996 193.06 103.36 192.474C103.729 191.889 104.223 191.452 104.843 191.162C105.462 190.872 106.15 190.727 106.905 190.727C107.439 190.727 107.914 190.77 108.328 190.855C108.743 190.94 109.05 191.017 109.249 191.085L108.635 193.472C108.505 193.432 108.34 193.392 108.141 193.352C107.942 193.307 107.721 193.284 107.476 193.284C106.902 193.284 106.496 193.423 106.257 193.702C106.025 193.974 105.908 194.366 105.908 194.878V209H102.814ZM111.034 209V195.909H114.12V209H111.034ZM112.586 194.051C112.097 194.051 111.676 193.889 111.324 193.565C110.972 193.236 110.796 192.841 110.796 192.381C110.796 191.915 110.972 191.52 111.324 191.196C111.676 190.866 112.097 190.702 112.586 190.702C113.08 190.702 113.5 190.866 113.847 191.196C114.199 191.52 114.375 191.915 114.375 192.381C114.375 192.841 114.199 193.236 113.847 193.565C113.5 193.889 113.08 194.051 112.586 194.051ZM123.088 209.256C121.775 209.256 120.642 208.983 119.687 208.438C118.738 207.886 118.008 207.108 117.497 206.102C116.985 205.091 116.73 203.901 116.73 202.531C116.73 201.185 116.985 200.003 117.497 198.986C118.014 197.963 118.735 197.168 119.662 196.599C120.588 196.026 121.676 195.739 122.926 195.739C123.733 195.739 124.494 195.869 125.21 196.131C125.931 196.386 126.568 196.784 127.119 197.324C127.676 197.864 128.113 198.551 128.431 199.386C128.75 200.216 128.909 201.205 128.909 202.352V203.298H118.179V201.219H125.951C125.946 200.628 125.818 200.102 125.568 199.642C125.318 199.176 124.968 198.81 124.52 198.543C124.076 198.276 123.559 198.142 122.968 198.142C122.338 198.142 121.784 198.295 121.306 198.602C120.829 198.903 120.457 199.301 120.19 199.795C119.929 200.284 119.795 200.821 119.789 201.406V203.222C119.789 203.983 119.929 204.636 120.207 205.182C120.485 205.722 120.875 206.136 121.375 206.426C121.875 206.71 122.46 206.852 123.13 206.852C123.579 206.852 123.985 206.79 124.349 206.665C124.713 206.534 125.028 206.344 125.295 206.094C125.562 205.844 125.764 205.534 125.9 205.165L128.781 205.489C128.599 206.25 128.252 206.915 127.741 207.483C127.235 208.045 126.588 208.483 125.798 208.795C125.008 209.102 124.105 209.256 123.088 209.256ZM141.865 199.369L139.053 199.676C138.973 199.392 138.834 199.125 138.635 198.875C138.442 198.625 138.181 198.423 137.851 198.27C137.522 198.116 137.118 198.04 136.641 198.04C135.999 198.04 135.459 198.179 135.022 198.457C134.59 198.736 134.377 199.097 134.382 199.54C134.377 199.92 134.516 200.23 134.8 200.469C135.09 200.707 135.567 200.903 136.232 201.057L138.465 201.534C139.703 201.801 140.624 202.224 141.226 202.804C141.834 203.384 142.141 204.142 142.147 205.08C142.141 205.903 141.9 206.631 141.422 207.261C140.951 207.886 140.294 208.375 139.453 208.727C138.613 209.08 137.647 209.256 136.556 209.256C134.953 209.256 133.664 208.92 132.686 208.25C131.709 207.574 131.127 206.634 130.939 205.429L133.948 205.139C134.084 205.73 134.374 206.176 134.817 206.477C135.26 206.778 135.837 206.929 136.547 206.929C137.28 206.929 137.868 206.778 138.311 206.477C138.76 206.176 138.985 205.804 138.985 205.361C138.985 204.986 138.84 204.676 138.55 204.432C138.266 204.187 137.823 204 137.221 203.869L134.988 203.401C133.732 203.139 132.803 202.699 132.201 202.08C131.598 201.455 131.3 200.665 131.306 199.71C131.3 198.903 131.519 198.205 131.962 197.614C132.411 197.017 133.033 196.557 133.828 196.233C134.63 195.903 135.553 195.739 136.598 195.739C138.132 195.739 139.34 196.065 140.221 196.719C141.107 197.372 141.655 198.256 141.865 199.369Z" fill="#1F1F1F"/>
<circle cx="159.5" cy="200.5" r="6" fill="#73BB90"/>
</g>
<g filter="url(#filter2_dd_1367_10384)">
<rect x="16.5" y="249" width="337" height="111" rx="8" fill="#FFFDFD"/>
<rect x="17" y="249.5" width="336" height="110" rx="7.5" stroke="#BDBDBD"/>
<path d="M41.3807 282.344V280.455H52.6378V282.344H48.0994V295H45.9119V282.344H41.3807ZM57.998 295.22C56.9753 295.22 56.0828 294.986 55.3205 294.517C54.5582 294.048 53.9663 293.393 53.5449 292.55C53.1235 291.707 52.9128 290.722 52.9128 289.595C52.9128 288.464 53.1235 287.474 53.5449 286.626C53.9663 285.779 54.5582 285.121 55.3205 284.652C56.0828 284.183 56.9753 283.949 57.998 283.949C59.0208 283.949 59.9133 284.183 60.6756 284.652C61.4379 285.121 62.0298 285.779 62.4512 286.626C62.8726 287.474 63.0833 288.464 63.0833 289.595C63.0833 290.722 62.8726 291.707 62.4512 292.55C62.0298 293.393 61.4379 294.048 60.6756 294.517C59.9133 294.986 59.0208 295.22 57.998 295.22ZM58.0051 293.438C58.668 293.438 59.2173 293.262 59.6529 292.912C60.0885 292.562 60.4104 292.095 60.6188 291.513C60.8318 290.93 60.9384 290.289 60.9384 289.588C60.9384 288.892 60.8318 288.253 60.6188 287.67C60.4104 287.083 60.0885 286.612 59.6529 286.257C59.2173 285.902 58.668 285.724 58.0051 285.724C57.3375 285.724 56.7836 285.902 56.3432 286.257C55.9076 286.612 55.5833 287.083 55.3702 287.67C55.1619 288.253 55.0577 288.892 55.0577 289.588C55.0577 290.289 55.1619 290.93 55.3702 291.513C55.5833 292.095 55.9076 292.562 56.3432 292.912C56.7836 293.262 57.3375 293.438 58.0051 293.438ZM70.576 284.091V285.795H64.6172V284.091H70.576ZM66.2152 281.477H68.3388V291.797C68.3388 292.209 68.4003 292.519 68.5234 292.727C68.6465 292.931 68.8051 293.071 68.9993 293.146C69.1981 293.217 69.4136 293.253 69.6456 293.253C69.816 293.253 69.9652 293.241 70.093 293.217C70.2209 293.194 70.3203 293.175 70.3913 293.161L70.7748 294.915C70.6517 294.962 70.4765 295.009 70.2493 295.057C70.022 295.109 69.7379 295.137 69.397 295.142C68.8383 295.152 68.3175 295.052 67.8345 294.844C67.3515 294.635 66.9609 294.313 66.6626 293.878C66.3643 293.442 66.2152 292.895 66.2152 292.237V281.477ZM76.1298 295.241C75.4385 295.241 74.8135 295.114 74.2548 294.858C73.6961 294.598 73.2534 294.221 72.9266 293.729C72.6047 293.236 72.4437 292.633 72.4437 291.918C72.4437 291.302 72.5621 290.795 72.7988 290.398C73.0355 290 73.3552 289.685 73.7576 289.453C74.1601 289.221 74.6099 289.046 75.107 288.928C75.6042 288.809 76.1108 288.719 76.6269 288.658C77.2803 288.582 77.8106 288.52 78.2178 288.473C78.625 288.421 78.921 288.338 79.1056 288.224C79.2903 288.111 79.3826 287.926 79.3826 287.67V287.621C79.3826 287 79.2074 286.52 78.857 286.179C78.5114 285.838 77.9953 285.668 77.3088 285.668C76.5938 285.668 76.0303 285.826 75.6184 286.143C75.2112 286.456 74.9295 286.804 74.7732 287.188L72.7775 286.733C73.0142 286.07 73.3599 285.535 73.8144 285.128C74.2737 284.716 74.8016 284.418 75.3982 284.233C75.9948 284.044 76.6222 283.949 77.2803 283.949C77.7159 283.949 78.1776 284.001 78.6653 284.105C79.1577 284.205 79.617 284.389 80.0431 284.659C80.474 284.929 80.8267 285.315 81.1014 285.817C81.376 286.314 81.5133 286.96 81.5133 287.756V295H79.4394V293.509H79.3542C79.2169 293.783 79.0109 294.053 78.7363 294.318C78.4617 294.583 78.1089 294.804 77.6781 294.979C77.2472 295.154 76.7311 295.241 76.1298 295.241ZM76.5914 293.537C77.1785 293.537 77.6804 293.421 78.0971 293.189C78.5185 292.957 78.8381 292.654 79.0559 292.28C79.2784 291.901 79.3897 291.496 79.3897 291.065V289.659C79.314 289.735 79.1672 289.806 78.9494 289.872C78.7363 289.934 78.4925 289.988 78.2178 290.036C77.9432 290.078 77.6757 290.118 77.4153 290.156C77.1549 290.189 76.9371 290.218 76.7619 290.241C76.3499 290.294 75.9735 290.381 75.6326 290.504C75.2964 290.627 75.0266 290.805 74.823 291.037C74.6241 291.264 74.5247 291.567 74.5247 291.946C74.5247 292.472 74.7188 292.869 75.107 293.139C75.4953 293.404 75.9901 293.537 76.5914 293.537ZM86.4954 280.455V295H84.3718V280.455H86.4954ZM94.8757 295V280.455H97.0703V286.776H104.322V280.455H106.523V295H104.322V288.658H97.0703V295H94.8757ZM114.174 295.22C113.151 295.22 112.259 294.986 111.497 294.517C110.734 294.048 110.142 293.393 109.721 292.55C109.3 291.707 109.089 290.722 109.089 289.595C109.089 288.464 109.3 287.474 109.721 286.626C110.142 285.779 110.734 285.121 111.497 284.652C112.259 284.183 113.151 283.949 114.174 283.949C115.197 283.949 116.089 284.183 116.852 284.652C117.614 285.121 118.206 285.779 118.627 286.626C119.049 287.474 119.259 288.464 119.259 289.595C119.259 290.722 119.049 291.707 118.627 292.55C118.206 293.393 117.614 294.048 116.852 294.517C116.089 294.986 115.197 295.22 114.174 295.22ZM114.181 293.438C114.844 293.438 115.393 293.262 115.829 292.912C116.265 292.562 116.587 292.095 116.795 291.513C117.008 290.93 117.114 290.289 117.114 289.588C117.114 288.892 117.008 288.253 116.795 287.67C116.587 287.083 116.265 286.612 115.829 286.257C115.393 285.902 114.844 285.724 114.181 285.724C113.514 285.724 112.96 285.902 112.519 286.257C112.084 286.612 111.759 287.083 111.546 287.67C111.338 288.253 111.234 288.892 111.234 289.588C111.234 290.289 111.338 290.93 111.546 291.513C111.759 292.095 112.084 292.562 112.519 292.912C112.96 293.262 113.514 293.438 114.181 293.438ZM128.57 290.476V284.091H130.701V295H128.613V293.111H128.499C128.248 293.693 127.846 294.179 127.292 294.567C126.743 294.95 126.058 295.142 125.239 295.142C124.539 295.142 123.918 294.988 123.378 294.68C122.843 294.368 122.422 293.906 122.114 293.295C121.811 292.685 121.66 291.929 121.66 291.03V284.091H123.783V290.774C123.783 291.518 123.989 292.109 124.401 292.55C124.813 292.99 125.348 293.21 126.006 293.21C126.404 293.21 126.799 293.111 127.192 292.912C127.59 292.713 127.919 292.412 128.18 292.01C128.445 291.607 128.575 291.096 128.57 290.476ZM141.759 286.754L139.834 287.095C139.754 286.849 139.626 286.615 139.451 286.392C139.28 286.17 139.048 285.987 138.755 285.845C138.461 285.703 138.094 285.632 137.654 285.632C137.053 285.632 136.551 285.767 136.148 286.037C135.746 286.302 135.544 286.645 135.544 287.067C135.544 287.431 135.679 287.725 135.949 287.947C136.219 288.17 136.655 288.352 137.256 288.494L138.989 288.892C139.993 289.124 140.741 289.482 141.233 289.964C141.726 290.447 141.972 291.075 141.972 291.847C141.972 292.5 141.783 293.082 141.404 293.594C141.03 294.1 140.507 294.498 139.834 294.787C139.167 295.076 138.393 295.22 137.512 295.22C136.29 295.22 135.294 294.96 134.522 294.439C133.75 293.913 133.277 293.168 133.101 292.202L135.154 291.889C135.282 292.424 135.544 292.829 135.942 293.104C136.34 293.374 136.858 293.509 137.498 293.509C138.194 293.509 138.75 293.364 139.167 293.075C139.583 292.782 139.792 292.424 139.792 292.003C139.792 291.662 139.664 291.375 139.408 291.143C139.157 290.911 138.771 290.736 138.25 290.618L136.404 290.213C135.386 289.981 134.633 289.612 134.145 289.105C133.662 288.598 133.421 287.957 133.421 287.18C133.421 286.536 133.601 285.973 133.961 285.49C134.321 285.007 134.818 284.631 135.452 284.361C136.087 284.086 136.813 283.949 137.633 283.949C138.812 283.949 139.74 284.205 140.417 284.716C141.094 285.223 141.541 285.902 141.759 286.754ZM149.039 295.22C147.964 295.22 147.038 294.991 146.262 294.531C145.49 294.067 144.893 293.416 144.472 292.578C144.055 291.735 143.847 290.748 143.847 289.616C143.847 288.499 144.055 287.514 144.472 286.662C144.893 285.81 145.48 285.144 146.233 284.666C146.991 284.188 147.876 283.949 148.889 283.949C149.505 283.949 150.102 284.051 150.679 284.254C151.257 284.458 151.775 284.777 152.235 285.213C152.694 285.649 153.056 286.214 153.321 286.911C153.586 287.602 153.719 288.442 153.719 289.432V290.185H145.047V288.594H151.638C151.638 288.035 151.524 287.54 151.297 287.109C151.07 286.674 150.75 286.33 150.338 286.08C149.931 285.829 149.453 285.703 148.904 285.703C148.307 285.703 147.786 285.85 147.341 286.143C146.901 286.432 146.56 286.811 146.318 287.28C146.082 287.744 145.963 288.248 145.963 288.793V290.036C145.963 290.765 146.091 291.385 146.347 291.896C146.607 292.408 146.97 292.798 147.434 293.068C147.898 293.333 148.44 293.466 149.06 293.466C149.462 293.466 149.829 293.409 150.161 293.295C150.492 293.177 150.779 293.002 151.02 292.77C151.262 292.538 151.446 292.251 151.574 291.911L153.584 292.273C153.423 292.865 153.134 293.383 152.718 293.828C152.306 294.268 151.787 294.612 151.162 294.858C150.542 295.099 149.834 295.22 149.039 295.22ZM158.229 288.523V295H156.105V280.455H158.2V285.866H158.335C158.591 285.279 158.982 284.813 159.507 284.467C160.033 284.122 160.719 283.949 161.567 283.949C162.315 283.949 162.968 284.103 163.527 284.411C164.091 284.718 164.526 285.178 164.834 285.788C165.146 286.394 165.303 287.152 165.303 288.061V295H163.179V288.317C163.179 287.517 162.973 286.896 162.561 286.456C162.149 286.011 161.576 285.788 160.842 285.788C160.341 285.788 159.891 285.895 159.493 286.108C159.1 286.321 158.79 286.634 158.563 287.045C158.34 287.453 158.229 287.945 158.229 288.523ZM172.762 295.22C171.739 295.22 170.846 294.986 170.084 294.517C169.322 294.048 168.73 293.393 168.309 292.55C167.887 291.707 167.676 290.722 167.676 289.595C167.676 288.464 167.887 287.474 168.309 286.626C168.73 285.779 169.322 285.121 170.084 284.652C170.846 284.183 171.739 283.949 172.762 283.949C173.784 283.949 174.677 284.183 175.439 284.652C176.202 285.121 176.793 285.779 177.215 286.626C177.636 287.474 177.847 288.464 177.847 289.595C177.847 290.722 177.636 291.707 177.215 292.55C176.793 293.393 176.202 294.048 175.439 294.517C174.677 294.986 173.784 295.22 172.762 295.22ZM172.769 293.438C173.432 293.438 173.981 293.262 174.416 292.912C174.852 292.562 175.174 292.095 175.382 291.513C175.595 290.93 175.702 290.289 175.702 289.588C175.702 288.892 175.595 288.253 175.382 287.67C175.174 287.083 174.852 286.612 174.416 286.257C173.981 285.902 173.432 285.724 172.769 285.724C172.101 285.724 171.547 285.902 171.107 286.257C170.671 286.612 170.347 287.083 170.134 287.67C169.925 288.253 169.821 288.892 169.821 289.588C169.821 290.289 169.925 290.93 170.134 291.513C170.347 292.095 170.671 292.562 171.107 292.912C171.547 293.262 172.101 293.438 172.769 293.438ZM182.371 280.455V295H180.247V280.455H182.371ZM189.342 295.213C188.461 295.213 187.675 294.988 186.984 294.538C186.297 294.084 185.757 293.437 185.364 292.599C184.976 291.757 184.782 290.746 184.782 289.567C184.782 288.388 184.978 287.379 185.371 286.541C185.769 285.703 186.314 285.062 187.005 284.616C187.696 284.171 188.48 283.949 189.356 283.949C190.033 283.949 190.577 284.062 190.989 284.29C191.406 284.512 191.728 284.773 191.955 285.071C192.187 285.369 192.367 285.632 192.495 285.859H192.623V280.455H194.746V295H192.672V293.303H192.495C192.367 293.535 192.182 293.8 191.941 294.098C191.704 294.396 191.378 294.657 190.961 294.879C190.544 295.102 190.004 295.213 189.342 295.213ZM189.81 293.402C190.421 293.402 190.937 293.241 191.359 292.919C191.785 292.592 192.107 292.14 192.324 291.562C192.547 290.985 192.658 290.312 192.658 289.545C192.658 288.788 192.549 288.125 192.332 287.557C192.114 286.989 191.794 286.546 191.373 286.229C190.951 285.911 190.431 285.753 189.81 285.753C189.171 285.753 188.638 285.919 188.212 286.25C187.786 286.581 187.464 287.034 187.246 287.607C187.033 288.179 186.927 288.826 186.927 289.545C186.927 290.275 187.036 290.93 187.253 291.513C187.471 292.095 187.793 292.557 188.219 292.898C188.65 293.234 189.181 293.402 189.81 293.402ZM205.495 280.455V295H203.301V280.455H205.495ZM210.674 288.523V295H208.551V284.091H210.589V285.866H210.724C210.975 285.289 211.368 284.825 211.903 284.474C212.443 284.124 213.122 283.949 213.941 283.949C214.685 283.949 215.336 284.105 215.895 284.418C216.453 284.725 216.887 285.185 217.194 285.795C217.502 286.406 217.656 287.161 217.656 288.061V295H215.532V288.317C215.532 287.526 215.326 286.908 214.914 286.463C214.503 286.013 213.937 285.788 213.217 285.788C212.725 285.788 212.287 285.895 211.903 286.108C211.524 286.321 211.224 286.634 211.001 287.045C210.783 287.453 210.674 287.945 210.674 288.523ZM225.129 295.22C224.073 295.22 223.164 294.981 222.402 294.503C221.644 294.02 221.062 293.355 220.655 292.507C220.247 291.66 220.044 290.689 220.044 289.595C220.044 288.487 220.252 287.509 220.669 286.662C221.086 285.81 221.673 285.144 222.43 284.666C223.188 284.188 224.08 283.949 225.108 283.949C225.936 283.949 226.675 284.103 227.324 284.411C227.972 284.714 228.496 285.14 228.893 285.689C229.296 286.238 229.535 286.88 229.611 287.614H227.544C227.43 287.102 227.17 286.662 226.763 286.293C226.36 285.923 225.82 285.739 225.143 285.739C224.551 285.739 224.033 285.895 223.588 286.207C223.148 286.515 222.804 286.955 222.558 287.528C222.312 288.097 222.189 288.769 222.189 289.545C222.189 290.341 222.31 291.027 222.551 291.605C222.792 292.183 223.133 292.63 223.574 292.947C224.019 293.265 224.542 293.423 225.143 293.423C225.546 293.423 225.91 293.35 226.237 293.203C226.569 293.052 226.846 292.836 227.068 292.557C227.295 292.277 227.454 291.941 227.544 291.548H229.611C229.535 292.254 229.305 292.884 228.922 293.438C228.538 293.991 228.024 294.427 227.381 294.744C226.741 295.062 225.991 295.22 225.129 295.22ZM236.507 295.22C235.484 295.22 234.592 294.986 233.829 294.517C233.067 294.048 232.475 293.393 232.054 292.55C231.632 291.707 231.422 290.722 231.422 289.595C231.422 288.464 231.632 287.474 232.054 286.626C232.475 285.779 233.067 285.121 233.829 284.652C234.592 284.183 235.484 283.949 236.507 283.949C237.53 283.949 238.422 284.183 239.184 284.652C239.947 285.121 240.539 285.779 240.96 286.626C241.381 287.474 241.592 288.464 241.592 289.595C241.592 290.722 241.381 291.707 240.96 292.55C240.539 293.393 239.947 294.048 239.184 294.517C238.422 294.986 237.53 295.22 236.507 295.22ZM236.514 293.438C237.177 293.438 237.726 293.262 238.162 292.912C238.597 292.562 238.919 292.095 239.128 291.513C239.341 290.93 239.447 290.289 239.447 289.588C239.447 288.892 239.341 288.253 239.128 287.67C238.919 287.083 238.597 286.612 238.162 286.257C237.726 285.902 237.177 285.724 236.514 285.724C235.846 285.724 235.292 285.902 234.852 286.257C234.416 286.612 234.092 287.083 233.879 287.67C233.671 288.253 233.566 288.892 233.566 289.588C233.566 290.289 233.671 290.93 233.879 291.513C234.092 292.095 234.416 292.562 234.852 292.912C235.292 293.262 235.846 293.438 236.514 293.438ZM243.992 295V284.091H246.031V285.866H246.166C246.393 285.265 246.765 284.796 247.281 284.46C247.797 284.119 248.415 283.949 249.134 283.949C249.864 283.949 250.474 284.119 250.967 284.46C251.464 284.801 251.831 285.27 252.068 285.866H252.181C252.442 285.284 252.856 284.82 253.424 284.474C253.992 284.124 254.669 283.949 255.455 283.949C256.445 283.949 257.252 284.259 257.877 284.879C258.507 285.5 258.822 286.435 258.822 287.685V295H256.698V287.884C256.698 287.145 256.497 286.61 256.095 286.278C255.692 285.947 255.212 285.781 254.653 285.781C253.962 285.781 253.424 285.994 253.041 286.42C252.657 286.842 252.465 287.384 252.465 288.047V295H250.349V287.749C250.349 287.157 250.164 286.681 249.795 286.321C249.426 285.961 248.945 285.781 248.353 285.781C247.951 285.781 247.579 285.888 247.238 286.101C246.902 286.309 246.63 286.6 246.421 286.974C246.218 287.348 246.116 287.782 246.116 288.274V295H243.992ZM266.4 295.22C265.325 295.22 264.399 294.991 263.623 294.531C262.851 294.067 262.255 293.416 261.833 292.578C261.416 291.735 261.208 290.748 261.208 289.616C261.208 288.499 261.416 287.514 261.833 286.662C262.255 285.81 262.842 285.144 263.594 284.666C264.352 284.188 265.237 283.949 266.251 283.949C266.866 283.949 267.463 284.051 268.041 284.254C268.618 284.458 269.137 284.777 269.596 285.213C270.055 285.649 270.417 286.214 270.683 286.911C270.948 287.602 271.08 288.442 271.08 289.432V290.185H262.408V288.594H268.999C268.999 288.035 268.886 287.54 268.658 287.109C268.431 286.674 268.112 286.33 267.7 286.08C267.292 285.829 266.814 285.703 266.265 285.703C265.668 285.703 265.148 285.85 264.702 286.143C264.262 286.432 263.921 286.811 263.68 287.28C263.443 287.744 263.325 288.248 263.325 288.793V290.036C263.325 290.765 263.452 291.385 263.708 291.896C263.969 292.408 264.331 292.798 264.795 293.068C265.259 293.333 265.801 293.466 266.421 293.466C266.824 293.466 267.191 293.409 267.522 293.295C267.853 293.177 268.14 293.002 268.381 292.77C268.623 292.538 268.808 292.251 268.935 291.911L270.945 292.273C270.784 292.865 270.496 293.383 270.079 293.828C269.667 294.268 269.148 294.612 268.523 294.858C267.903 295.099 267.195 295.22 266.4 295.22Z" fill="#757575"/>
<path d="M47.93 332.182V310.364H49.3278V332.182H47.93ZM51.9613 317.344C51.8817 316.599 51.5465 316.02 50.9556 315.605C50.3704 315.19 49.609 314.983 48.6715 314.983C48.0124 314.983 47.4471 315.082 46.9755 315.281C46.5039 315.48 46.1431 315.75 45.8931 316.091C45.6431 316.432 45.5153 316.821 45.5096 317.259C45.5096 317.622 45.592 317.937 45.7567 318.205C45.9272 318.472 46.1573 318.699 46.4471 318.886C46.7369 319.068 47.0579 319.222 47.4102 319.347C47.7624 319.472 48.1175 319.577 48.4755 319.662L50.1119 320.071C50.771 320.224 51.4045 320.432 52.0124 320.693C52.6261 320.955 53.1744 321.284 53.6573 321.682C54.146 322.08 54.5323 322.56 54.8164 323.122C55.1005 323.685 55.2425 324.344 55.2425 325.099C55.2425 326.122 54.9812 327.023 54.4585 327.801C53.9357 328.574 53.18 329.179 52.1914 329.616C51.2085 330.048 50.0181 330.264 48.6204 330.264C47.2624 330.264 46.0835 330.054 45.0835 329.634C44.0891 329.213 43.3107 328.599 42.7482 327.793C42.1914 326.986 41.8903 326.003 41.8448 324.844H44.9556C45.0011 325.452 45.1886 325.957 45.5181 326.361C45.8477 326.764 46.2766 327.065 46.805 327.264C47.3391 327.463 47.9357 327.562 48.5948 327.562C49.2823 327.562 49.8846 327.46 50.4016 327.256C50.9244 327.045 51.3335 326.756 51.6289 326.386C51.9244 326.011 52.0749 325.574 52.0806 325.074C52.0749 324.619 51.9414 324.244 51.68 323.949C51.4187 323.648 51.0522 323.398 50.5806 323.199C50.1147 322.994 49.5692 322.812 48.9442 322.653L46.9585 322.142C45.521 321.773 44.3846 321.213 43.5494 320.463C42.7198 319.707 42.305 318.705 42.305 317.455C42.305 316.426 42.5835 315.526 43.1403 314.753C43.7028 313.98 44.467 313.381 45.4329 312.955C46.3988 312.523 47.4925 312.307 48.7141 312.307C49.9528 312.307 51.038 312.523 51.9698 312.955C52.9073 313.381 53.6431 313.974 54.1772 314.736C54.7113 315.491 54.9869 316.361 55.0039 317.344H51.9613ZM63.9592 330.239C62.8228 330.239 61.8058 330.026 60.908 329.599C60.0103 329.168 59.2972 328.577 58.7688 327.827C58.2461 327.077 57.9677 326.219 57.9336 325.253H61.0018C61.0586 325.969 61.3683 326.554 61.9308 327.009C62.4933 327.457 63.1694 327.682 63.9592 327.682C64.5785 327.682 65.1296 327.54 65.6126 327.256C66.0955 326.972 66.4762 326.577 66.7546 326.071C67.033 325.565 67.1694 324.989 67.1637 324.341C67.1694 323.682 67.0302 323.097 66.7461 322.585C66.462 322.074 66.0728 321.673 65.5785 321.384C65.0842 321.088 64.516 320.94 63.8739 320.94C63.3512 320.935 62.837 321.031 62.3313 321.23C61.8256 321.429 61.4251 321.69 61.1296 322.014L58.2745 321.545L59.1864 312.545H69.3114V315.188H61.8029L61.3001 319.815H61.4023C61.7262 319.435 62.1836 319.119 62.7745 318.869C63.3654 318.614 64.0131 318.486 64.7177 318.486C65.7745 318.486 66.7177 318.736 67.5472 319.236C68.3768 319.73 69.0302 320.412 69.5075 321.281C69.9847 322.151 70.2234 323.145 70.2234 324.264C70.2234 325.418 69.9563 326.446 69.4222 327.349C68.8938 328.247 68.158 328.955 67.2148 329.472C66.2773 329.983 65.1921 330.239 63.9592 330.239ZM76.1488 327.614L76.038 328.551C75.9585 329.267 75.8164 329.994 75.6119 330.733C75.413 331.477 75.2028 332.162 74.9812 332.787C74.7596 333.412 74.5806 333.903 74.4442 334.261H72.3647C72.4442 333.915 72.5522 333.443 72.6886 332.847C72.8306 332.25 72.967 331.58 73.0977 330.835C73.2283 330.091 73.3164 329.335 73.3619 328.568L73.4215 327.614H76.1488ZM85.3427 330.332C83.9393 330.332 82.7347 329.977 81.729 329.267C80.729 328.551 79.9592 327.52 79.4194 326.173C78.8853 324.821 78.6183 323.193 78.6183 321.29C78.6239 319.386 78.8938 317.767 79.4279 316.432C79.9677 315.091 80.7376 314.068 81.7376 313.364C82.7433 312.659 83.945 312.307 85.3427 312.307C86.7404 312.307 87.9421 312.659 88.9478 313.364C89.9535 314.068 90.7234 315.091 91.2575 316.432C91.7972 317.773 92.0671 319.392 92.0671 321.29C92.0671 323.199 91.7972 324.83 91.2575 326.182C90.7234 327.528 89.9535 328.557 88.9478 329.267C87.9478 329.977 86.7461 330.332 85.3427 330.332ZM85.3427 327.665C86.4336 327.665 87.2944 327.128 87.9251 326.054C88.5614 324.974 88.8796 323.386 88.8796 321.29C88.8796 319.903 88.7347 318.739 88.445 317.795C88.1552 316.852 87.7461 316.142 87.2177 315.665C86.6893 315.182 86.0643 314.94 85.3427 314.94C84.2575 314.94 83.3995 315.48 82.7688 316.56C82.1381 317.634 81.82 319.21 81.8143 321.29C81.8086 322.682 81.9478 323.852 82.2319 324.801C82.5217 325.75 82.9308 326.466 83.4592 326.949C83.9876 327.426 84.6154 327.665 85.3427 327.665ZM101.35 330.332C99.9471 330.332 98.7425 329.977 97.7369 329.267C96.7369 328.551 95.967 327.52 95.4272 326.173C94.8931 324.821 94.6261 323.193 94.6261 321.29C94.6317 319.386 94.9016 317.767 95.4357 316.432C95.9755 315.091 96.7454 314.068 97.7454 313.364C98.7511 312.659 99.9528 312.307 101.35 312.307C102.748 312.307 103.95 312.659 104.956 313.364C105.961 314.068 106.731 315.091 107.265 316.432C107.805 317.773 108.075 319.392 108.075 321.29C108.075 323.199 107.805 324.83 107.265 326.182C106.731 327.528 105.961 328.557 104.956 329.267C103.956 329.977 102.754 330.332 101.35 330.332ZM101.35 327.665C102.441 327.665 103.302 327.128 103.933 326.054C104.569 324.974 104.887 323.386 104.887 321.29C104.887 319.903 104.743 318.739 104.453 317.795C104.163 316.852 103.754 316.142 103.225 315.665C102.697 315.182 102.072 314.94 101.35 314.94C100.265 314.94 99.4073 315.48 98.7766 316.56C98.146 317.634 97.8278 319.21 97.8221 321.29C97.8164 322.682 97.9556 323.852 98.2397 324.801C98.5295 325.75 98.9386 326.466 99.467 326.949C99.9954 327.426 100.623 327.665 101.35 327.665ZM117.358 330.332C115.955 330.332 114.75 329.977 113.745 329.267C112.745 328.551 111.975 327.52 111.435 326.173C110.901 324.821 110.634 323.193 110.634 321.29C110.64 319.386 110.909 317.767 111.444 316.432C111.983 315.091 112.753 314.068 113.753 313.364C114.759 312.659 115.961 312.307 117.358 312.307C118.756 312.307 119.958 312.659 120.963 313.364C121.969 314.068 122.739 315.091 123.273 316.432C123.813 317.773 124.083 319.392 124.083 321.29C124.083 323.199 123.813 324.83 123.273 326.182C122.739 327.528 121.969 328.557 120.963 329.267C119.963 329.977 118.762 330.332 117.358 330.332ZM117.358 327.665C118.449 327.665 119.31 327.128 119.941 326.054C120.577 324.974 120.895 323.386 120.895 321.29C120.895 319.903 120.75 318.739 120.461 317.795C120.171 316.852 119.762 316.142 119.233 315.665C118.705 315.182 118.08 314.94 117.358 314.94C116.273 314.94 115.415 315.48 114.784 316.56C114.154 317.634 113.836 319.21 113.83 321.29C113.824 322.682 113.963 323.852 114.248 324.801C114.537 325.75 114.946 326.466 115.475 326.949C116.003 327.426 116.631 327.665 117.358 327.665ZM140.027 311.727L134.402 332.625H131.7L137.325 311.727H140.027ZM147.949 330V316.909H150.897V319.134H151.051C151.324 318.384 151.775 317.798 152.406 317.378C153.037 316.952 153.789 316.739 154.664 316.739C155.551 316.739 156.298 316.955 156.906 317.386C157.52 317.812 157.951 318.395 158.201 319.134H158.338C158.627 318.406 159.116 317.827 159.804 317.395C160.497 316.957 161.318 316.739 162.267 316.739C163.471 316.739 164.454 317.119 165.216 317.881C165.977 318.642 166.358 319.753 166.358 321.213V330H163.264V321.69C163.264 320.878 163.048 320.284 162.616 319.909C162.184 319.528 161.656 319.338 161.031 319.338C160.287 319.338 159.704 319.571 159.284 320.037C158.869 320.497 158.662 321.097 158.662 321.835V330H155.636V321.562C155.636 320.886 155.431 320.347 155.022 319.943C154.619 319.54 154.091 319.338 153.437 319.338C152.994 319.338 152.591 319.452 152.227 319.679C151.863 319.901 151.574 320.216 151.358 320.625C151.142 321.028 151.034 321.5 151.034 322.04V330H147.949ZM175.198 330.256C173.919 330.256 172.811 329.974 171.874 329.412C170.936 328.849 170.209 328.062 169.692 327.051C169.181 326.04 168.925 324.858 168.925 323.506C168.925 322.153 169.181 320.969 169.692 319.952C170.209 318.935 170.936 318.145 171.874 317.582C172.811 317.02 173.919 316.739 175.198 316.739C176.476 316.739 177.584 317.02 178.522 317.582C179.459 318.145 180.184 318.935 180.695 319.952C181.212 320.969 181.471 322.153 181.471 323.506C181.471 324.858 181.212 326.04 180.695 327.051C180.184 328.062 179.459 328.849 178.522 329.412C177.584 329.974 176.476 330.256 175.198 330.256ZM175.215 327.784C175.908 327.784 176.488 327.594 176.953 327.213C177.419 326.827 177.766 326.31 177.993 325.662C178.226 325.014 178.343 324.293 178.343 323.497C178.343 322.696 178.226 321.972 177.993 321.324C177.766 320.67 177.419 320.151 176.953 319.764C176.488 319.378 175.908 319.185 175.215 319.185C174.505 319.185 173.914 319.378 173.442 319.764C172.976 320.151 172.627 320.67 172.394 321.324C172.167 321.972 172.053 322.696 172.053 323.497C172.053 324.293 172.167 325.014 172.394 325.662C172.627 326.31 172.976 326.827 173.442 327.213C173.914 327.594 174.505 327.784 175.215 327.784ZM187.174 322.33V330H184.089V316.909H187.038V319.134H187.191C187.493 318.401 187.973 317.818 188.632 317.386C189.297 316.955 190.118 316.739 191.095 316.739C191.998 316.739 192.785 316.932 193.456 317.318C194.132 317.705 194.654 318.264 195.024 318.997C195.399 319.73 195.583 320.619 195.578 321.665V330H192.493V322.142C192.493 321.267 192.265 320.582 191.811 320.088C191.362 319.594 190.74 319.347 189.944 319.347C189.404 319.347 188.924 319.466 188.504 319.705C188.089 319.937 187.762 320.276 187.524 320.719C187.291 321.162 187.174 321.699 187.174 322.33ZM205.251 316.909V319.295H197.725V316.909H205.251ZM199.583 313.773H202.669V326.062C202.669 326.477 202.731 326.795 202.856 327.017C202.987 327.233 203.157 327.381 203.368 327.46C203.578 327.54 203.811 327.58 204.066 327.58C204.26 327.58 204.436 327.565 204.595 327.537C204.76 327.509 204.885 327.483 204.97 327.46L205.49 329.872C205.325 329.929 205.089 329.991 204.782 330.06C204.481 330.128 204.112 330.168 203.674 330.179C202.902 330.202 202.206 330.085 201.586 329.83C200.967 329.568 200.475 329.165 200.112 328.619C199.754 328.074 199.578 327.392 199.583 326.574V313.773ZM211.198 322.33V330H208.113V312.545H211.13V319.134H211.283C211.59 318.395 212.064 317.812 212.706 317.386C213.354 316.955 214.178 316.739 215.178 316.739C216.087 316.739 216.88 316.929 217.556 317.31C218.232 317.69 218.755 318.247 219.124 318.98C219.499 319.713 219.686 320.608 219.686 321.665V330H216.601V322.142C216.601 321.261 216.374 320.577 215.919 320.088C215.471 319.594 214.84 319.347 214.027 319.347C213.482 319.347 212.993 319.466 212.561 319.705C212.135 319.937 211.8 320.276 211.556 320.719C211.317 321.162 211.198 321.699 211.198 322.33Z" fill="#1F1F1F"/>
</g>
<defs>
<filter id="filter0_dd_1367_10384" x="0.5" y="0" width="369" height="143" filterUnits="userSpaceOnUse" color-interpolation-filters="sRGB">
<feFlood flood-opacity="0" result="BackgroundImageFix"/>
<feColorMatrix in="SourceAlpha" type="matrix" values="0 0 0 0 0 0 0 0 0 0 0 0 0 0 0 0 0 0 127 0" result="hardAlpha"/>
<feOffset dy="2"/>
<feGaussianBlur stdDeviation="3"/>
<feColorMatrix type="matrix" values="0 0 0 0 0.560784 0 0 0 0 0.611765 0 0 0 0 0.686275 0 0 0 0.06 0"/>
<feBlend mode="normal" in2="BackgroundImageFix" result="effect1_dropShadow_1367_10384"/>
<feColorMatrix in="SourceAlpha" type="matrix" values="0 0 0 0 0 0 0 0 0 0 0 0 0 0 0 0 0 0 127 0" result="hardAlpha"/>
<feOffset dy="9"/>
<feGaussianBlur stdDeviation="8"/>
<feColorMatrix type="matrix" values="0 0 0 0 0.560784 0 0 0 0 0.611765 0 0 0 0 0.686275 0 0 0 0.1 0"/>
<feBlend mode="normal" in2="effect1_dropShadow_1367_10384" result="effect2_dropShadow_1367_10384"/>
<feBlend mode="normal" in="SourceGraphic" in2="effect2_dropShadow_1367_10384" result="shape"/>
</filter>
<filter id="filter1_dd_1367_10384" x="0.5" y="121" width="369" height="143" filterUnits="userSpaceOnUse" color-interpolation-filters="sRGB">
<feFlood flood-opacity="0" result="BackgroundImageFix"/>
<feColorMatrix in="SourceAlpha" type="matrix" values="0 0 0 0 0 0 0 0 0 0 0 0 0 0 0 0 0 0 127 0" result="hardAlpha"/>
<feOffset dy="2"/>
<feGaussianBlur stdDeviation="3"/>
<feColorMatrix type="matrix" values="0 0 0 0 0.560784 0 0 0 0 0.611765 0 0 0 0 0.686275 0 0 0 0.06 0"/>
<feBlend mode="normal" in2="BackgroundImageFix" result="effect1_dropShadow_1367_10384"/>
<feColorMatrix in="SourceAlpha" type="matrix" values="0 0 0 0 0 0 0 0 0 0 0 0 0 0 0 0 0 0 127 0" result="hardAlpha"/>
<feOffset dy="9"/>
<feGaussianBlur stdDeviation="8"/>
<feColorMatrix type="matrix" values="0 0 0 0 0.560784 0 0 0 0 0.611765 0 0 0 0 0.686275 0 0 0 0.1 0"/>
<feBlend mode="normal" in2="effect1_dropShadow_1367_10384" result="effect2_dropShadow_1367_10384"/>
<feBlend mode="normal" in="SourceGraphic" in2="effect2_dropShadow_1367_10384" result="shape"/>
</filter>
<filter id="filter2_dd_1367_10384" x="0.5" y="242" width="369" height="143" filterUnits="userSpaceOnUse" color-interpolation-filters="sRGB">
<feFlood flood-opacity="0" result="BackgroundImageFix"/>
<feColorMatrix in="SourceAlpha" type="matrix" values="0 0 0 0 0 0 0 0 0 0 0 0 0 0 0 0 0 0 127 0" result="hardAlpha"/>
<feOffset dy="2"/>
<feGaussianBlur stdDeviation="3"/>
<feColorMatrix type="matrix" values="0 0 0 0 0.560784 0 0 0 0 0.611765 0 0 0 0 0.686275 0 0 0 0.06 0"/>
<feBlend mode="normal" in2="BackgroundImageFix" result="effect1_dropShadow_1367_10384"/>
<feColorMatrix in="SourceAlpha" type="matrix" values="0 0 0 0 0 0 0 0 0 0 0 0 0 0 0 0 0 0 127 0" result="hardAlpha"/>
<feOffset dy="9"/>
<feGaussianBlur stdDeviation="8"/>
<feColorMatrix type="matrix" values="0 0 0 0 0.560784 0 0 0 0 0.611765 0 0 0 0 0.686275 0 0 0 0.1 0"/>
<feBlend mode="normal" in2="effect1_dropShadow_1367_10384" result="effect2_dropShadow_1367_10384"/>
<feBlend mode="normal" in="SourceGraphic" in2="effect2_dropShadow_1367_10384" result="shape"/>
</filter>
</defs>
</svg>
