<svg width="608" height="427" viewBox="0 0 608 427" fill="none" xmlns="http://www.w3.org/2000/svg">
<g filter="url(#filter0_dd_1082_4792)">
<rect x="16" y="7" width="576" height="395" rx="8" fill="#FFFDFD"/>
<rect x="16.5" y="7.5" width="575" height="394" rx="7.5" stroke="#BDBDBD"/>
<g clip-path="url(#clip0_1082_4792)">
<path d="M42.8267 62H40.4972L45.7315 47.4545H48.267L53.5014 62H51.1719L47.0597 50.0966H46.946L42.8267 62ZM43.2173 56.304H50.7741V58.1506H43.2173V56.304ZM55.4615 66.0909V51.0909H57.5353V52.8594H57.7129C57.836 52.6321 58.0135 52.3693 58.2456 52.071C58.4776 51.7727 58.7995 51.5123 59.2115 51.2898C59.6234 51.0625 60.1679 50.9489 60.845 50.9489C61.7257 50.9489 62.5117 51.1714 63.2029 51.6165C63.8942 52.0616 64.4364 52.7031 64.8294 53.5412C65.2271 54.3793 65.426 55.3878 65.426 56.5668C65.426 57.7457 65.2295 58.7566 64.8365 59.5994C64.4435 60.4375 63.9037 61.0838 63.2171 61.5384C62.5306 61.9882 61.747 62.2131 60.8663 62.2131C60.2034 62.2131 59.6613 62.1018 59.2399 61.8793C58.8232 61.6567 58.4965 61.3963 58.2598 61.098C58.023 60.7997 57.8407 60.5346 57.7129 60.3026H57.585V66.0909H55.4615ZM57.5424 56.5455C57.5424 57.3125 57.6537 57.9848 57.8762 58.5625C58.0988 59.1402 58.4207 59.5923 58.8421 59.919C59.2635 60.241 59.7796 60.402 60.3904 60.402C61.0249 60.402 61.5552 60.2339 61.9813 59.8977C62.4075 59.5568 62.7295 59.0952 62.9473 58.5128C63.1698 57.9304 63.2811 57.2746 63.2811 56.5455C63.2811 55.8258 63.1722 55.1795 62.9544 54.6065C62.7413 54.0336 62.4193 53.5814 61.9885 53.25C61.5623 52.9186 61.0296 52.7528 60.3904 52.7528C59.7749 52.7528 59.2541 52.9115 58.8279 53.2287C58.4065 53.5459 58.0869 53.9886 57.8691 54.5568C57.6513 55.125 57.5424 55.7879 57.5424 56.5455ZM67.8352 66.0909V51.0909H69.9091V52.8594H70.0866C70.2097 52.6321 70.3873 52.3693 70.6193 52.071C70.8513 51.7727 71.1733 51.5123 71.5852 51.2898C71.9971 51.0625 72.5417 50.9489 73.2187 50.9489C74.0994 50.9489 74.8854 51.1714 75.5767 51.6165C76.268 52.0616 76.8101 52.7031 77.2031 53.5412C77.6008 54.3793 77.7997 55.3878 77.7997 56.5668C77.7997 57.7457 77.6032 58.7566 77.2102 59.5994C76.8172 60.4375 76.2774 61.0838 75.5909 61.5384C74.9043 61.9882 74.1207 62.2131 73.24 62.2131C72.5772 62.2131 72.035 62.1018 71.6136 61.8793C71.197 61.6567 70.8703 61.3963 70.6335 61.098C70.3968 60.7997 70.2145 60.5346 70.0866 60.3026H69.9588V66.0909H67.8352ZM69.9162 56.5455C69.9162 57.3125 70.0274 57.9848 70.25 58.5625C70.4725 59.1402 70.7945 59.5923 71.2159 59.919C71.6373 60.241 72.1534 60.402 72.7642 60.402C73.3987 60.402 73.929 60.2339 74.3551 59.8977C74.7812 59.5568 75.1032 59.0952 75.321 58.5128C75.5435 57.9304 75.6548 57.2746 75.6548 56.5455C75.6548 55.8258 75.5459 55.1795 75.3281 54.6065C75.115 54.0336 74.7931 53.5814 74.3622 53.25C73.9361 52.9186 73.4034 52.7528 72.7642 52.7528C72.1487 52.7528 71.6278 52.9115 71.2017 53.2287C70.7803 53.5459 70.4607 53.9886 70.2429 54.5568C70.0251 55.125 69.9162 55.7879 69.9162 56.5455ZM82.3325 47.4545V62H80.209V47.4545H82.3325ZM85.2194 62V51.0909H87.343V62H85.2194ZM86.2919 49.4077C85.9226 49.4077 85.6053 49.2846 85.3402 49.0384C85.0798 48.7874 84.9495 48.4891 84.9495 48.1435C84.9495 47.7931 85.0798 47.4948 85.3402 47.2486C85.6053 46.9976 85.9226 46.8722 86.2919 46.8722C86.6612 46.8722 86.9761 46.9976 87.2365 47.2486C87.5016 47.4948 87.6342 47.7931 87.6342 48.1435C87.6342 48.4891 87.5016 48.7874 87.2365 49.0384C86.9761 49.2846 86.6612 49.4077 86.2919 49.4077ZM94.8251 62.2202C93.7692 62.2202 92.8601 61.9811 92.0978 61.5028C91.3402 61.0199 90.7578 60.3546 90.3506 59.5071C89.9434 58.6596 89.7398 57.6889 89.7398 56.5952C89.7398 55.4872 89.9482 54.5095 90.3648 53.6619C90.7815 52.8097 91.3686 52.1444 92.1262 51.6662C92.8838 51.188 93.7763 50.9489 94.8038 50.9489C95.6324 50.9489 96.371 51.1027 97.0197 51.4105C97.6683 51.7135 98.1916 52.1397 98.5893 52.6889C98.9917 53.2382 99.2308 53.8797 99.3066 54.6136H97.2398C97.1262 54.1023 96.8658 53.6619 96.4586 53.2926C96.0561 52.9233 95.5164 52.7386 94.8393 52.7386C94.2474 52.7386 93.729 52.8949 93.2839 53.2074C92.8435 53.5152 92.5003 53.9555 92.254 54.5284C92.0078 55.0966 91.8847 55.7689 91.8847 56.5455C91.8847 57.3409 92.0055 58.0275 92.2469 58.6051C92.4884 59.1828 92.8293 59.6302 93.2697 59.9474C93.7148 60.2647 94.238 60.4233 94.8393 60.4233C95.2417 60.4233 95.6063 60.3499 95.933 60.2031C96.2645 60.0516 96.5415 59.8362 96.764 59.5568C96.9913 59.2775 97.1499 58.9413 97.2398 58.5483H99.3066C99.2308 59.2538 99.0012 59.8835 98.6177 60.4375C98.2342 60.9915 97.7204 61.4271 97.0765 61.7443C96.4373 62.0616 95.6868 62.2202 94.8251 62.2202ZM104.782 62.2415C104.091 62.2415 103.466 62.1136 102.907 61.858C102.349 61.5975 101.906 61.2211 101.579 60.7287C101.257 60.2363 101.096 59.6326 101.096 58.9176C101.096 58.3021 101.215 57.7955 101.451 57.3977C101.688 57 102.008 56.6851 102.41 56.4531C102.813 56.2211 103.262 56.0459 103.76 55.9276C104.257 55.8092 104.763 55.7192 105.279 55.6577C105.933 55.5819 106.463 55.5204 106.87 55.473C107.278 55.4209 107.573 55.3381 107.758 55.2244C107.943 55.1108 108.035 54.9261 108.035 54.6705V54.6207C108.035 54.0005 107.86 53.5199 107.51 53.179C107.164 52.8381 106.648 52.6676 105.961 52.6676C105.246 52.6676 104.683 52.8262 104.271 53.1435C103.864 53.456 103.582 53.804 103.426 54.1875L101.43 53.733C101.667 53.0701 102.012 52.535 102.467 52.1278C102.926 51.7159 103.454 51.4176 104.051 51.233C104.647 51.0436 105.275 50.9489 105.933 50.9489C106.368 50.9489 106.83 51.0009 107.318 51.1051C107.81 51.2045 108.269 51.3892 108.696 51.6591C109.126 51.929 109.479 52.3149 109.754 52.8168C110.028 53.3139 110.166 53.9602 110.166 54.7557V62H108.092V60.5085H108.007C107.869 60.7831 107.663 61.053 107.389 61.3182C107.114 61.5833 106.761 61.8035 106.331 61.9787C105.9 62.1539 105.384 62.2415 104.782 62.2415ZM105.244 60.5369C105.831 60.5369 106.333 60.4209 106.75 60.1889C107.171 59.9569 107.491 59.6539 107.708 59.2798C107.931 58.901 108.042 58.4962 108.042 58.0653V56.6591C107.966 56.7348 107.82 56.8059 107.602 56.8722C107.389 56.9337 107.145 56.9882 106.87 57.0355C106.596 57.0781 106.328 57.1184 106.068 57.1562C105.807 57.1894 105.59 57.2178 105.414 57.2415C105.002 57.2936 104.626 57.3812 104.285 57.5043C103.949 57.6274 103.679 57.8049 103.475 58.0369C103.277 58.2642 103.177 58.5672 103.177 58.946C103.177 59.4716 103.371 59.8693 103.76 60.1392C104.148 60.4044 104.643 60.5369 105.244 60.5369ZM118.117 51.0909V52.7955H112.158V51.0909H118.117ZM113.756 48.4773H115.879V58.7969C115.879 59.2088 115.941 59.5189 116.064 59.7273C116.187 59.9309 116.346 60.0705 116.54 60.1463C116.739 60.2173 116.954 60.2528 117.186 60.2528C117.357 60.2528 117.506 60.241 117.634 60.2173C117.761 60.1937 117.861 60.1747 117.932 60.1605L118.315 61.9148C118.192 61.9621 118.017 62.0095 117.79 62.0568C117.563 62.1089 117.279 62.1373 116.938 62.142C116.379 62.1515 115.858 62.0521 115.375 61.8438C114.892 61.6354 114.502 61.3134 114.203 60.8778C113.905 60.4422 113.756 59.8954 113.756 59.2372V48.4773ZM120.496 62V51.0909H122.619V62H120.496ZM121.568 49.4077C121.199 49.4077 120.882 49.2846 120.616 49.0384C120.356 48.7874 120.226 48.4891 120.226 48.1435C120.226 47.7931 120.356 47.4948 120.616 47.2486C120.882 46.9976 121.199 46.8722 121.568 46.8722C121.937 46.8722 122.252 46.9976 122.513 47.2486C122.778 47.4948 122.91 47.7931 122.91 48.1435C122.91 48.4891 122.778 48.7874 122.513 49.0384C122.252 49.2846 121.937 49.4077 121.568 49.4077ZM130.101 62.2202C129.079 62.2202 128.186 61.9858 127.424 61.517C126.661 61.0483 126.07 60.3925 125.648 59.5497C125.227 58.7069 125.016 57.7221 125.016 56.5952C125.016 55.4635 125.227 54.474 125.648 53.6264C126.07 52.7789 126.661 52.1207 127.424 51.652C128.186 51.1832 129.079 50.9489 130.101 50.9489C131.124 50.9489 132.017 51.1832 132.779 51.652C133.541 52.1207 134.133 52.7789 134.554 53.6264C134.976 54.474 135.187 55.4635 135.187 56.5952C135.187 57.7221 134.976 58.7069 134.554 59.5497C134.133 60.3925 133.541 61.0483 132.779 61.517C132.017 61.9858 131.124 62.2202 130.101 62.2202ZM130.108 60.4375C130.771 60.4375 131.321 60.2623 131.756 59.9119C132.192 59.5616 132.514 59.0952 132.722 58.5128C132.935 57.9304 133.042 57.2888 133.042 56.5881C133.042 55.892 132.935 55.2528 132.722 54.6705C132.514 54.0833 132.192 53.6122 131.756 53.2571C131.321 52.902 130.771 52.7244 130.108 52.7244C129.441 52.7244 128.887 52.902 128.446 53.2571C128.011 53.6122 127.687 54.0833 127.473 54.6705C127.265 55.2528 127.161 55.892 127.161 56.5881C127.161 57.2888 127.265 57.9304 127.473 58.5128C127.687 59.0952 128.011 59.5616 128.446 59.9119C128.887 60.2623 129.441 60.4375 130.108 60.4375ZM139.711 55.5227V62H137.587V51.0909H139.625V52.8665H139.76C140.011 52.2888 140.404 51.8248 140.939 51.4744C141.479 51.1241 142.158 50.9489 142.978 50.9489C143.721 50.9489 144.372 51.1051 144.931 51.4176C145.489 51.7254 145.923 52.1847 146.23 52.7955C146.538 53.4062 146.692 54.1615 146.692 55.0611V62H144.568V55.3168C144.568 54.526 144.363 53.9081 143.951 53.4631C143.539 53.0133 142.973 52.7884 142.253 52.7884C141.761 52.7884 141.323 52.8949 140.939 53.108C140.56 53.321 140.26 53.6335 140.037 54.0455C139.819 54.4527 139.711 54.9451 139.711 55.5227ZM157.745 53.7543L155.82 54.0952C155.74 53.849 155.612 53.6146 155.437 53.392C155.266 53.1695 155.034 52.9872 154.741 52.8452C154.447 52.7031 154.08 52.6321 153.64 52.6321C153.038 52.6321 152.536 52.767 152.134 53.0369C151.732 53.3021 151.53 53.6454 151.53 54.0668C151.53 54.4313 151.665 54.7249 151.935 54.9474C152.205 55.17 152.641 55.3523 153.242 55.4943L154.975 55.892C155.979 56.1241 156.727 56.4815 157.219 56.9645C157.712 57.4474 157.958 58.0748 157.958 58.8466C157.958 59.5 157.768 60.0824 157.39 60.5938C157.016 61.1004 156.492 61.4981 155.82 61.7869C155.152 62.0758 154.378 62.2202 153.498 62.2202C152.276 62.2202 151.279 61.9598 150.508 61.4389C149.736 60.9134 149.262 60.1676 149.087 59.2017L151.14 58.8892C151.268 59.4242 151.53 59.8291 151.928 60.1037C152.326 60.3736 152.844 60.5085 153.483 60.5085C154.179 60.5085 154.736 60.3641 155.152 60.0753C155.569 59.7817 155.777 59.4242 155.777 59.0028C155.777 58.6619 155.65 58.3755 155.394 58.1435C155.143 57.9115 154.757 57.7363 154.236 57.6179L152.39 57.2131C151.372 56.9811 150.619 56.6117 150.131 56.1051C149.648 55.5985 149.407 54.9569 149.407 54.1804C149.407 53.5365 149.587 52.973 149.946 52.4901C150.306 52.0071 150.803 51.6307 151.438 51.3608C152.072 51.0862 152.799 50.9489 153.618 50.9489C154.797 50.9489 155.725 51.2045 156.402 51.7159C157.08 52.2225 157.527 52.902 157.745 53.7543ZM165.646 66.0909V51.0909H167.72V52.8594H167.897C168.02 52.6321 168.198 52.3693 168.43 52.071C168.662 51.7727 168.984 51.5123 169.396 51.2898C169.808 51.0625 170.352 50.9489 171.029 50.9489C171.91 50.9489 172.696 51.1714 173.387 51.6165C174.078 52.0616 174.621 52.7031 175.014 53.5412C175.411 54.3793 175.61 55.3878 175.61 56.5668C175.61 57.7457 175.414 58.7566 175.021 59.5994C174.628 60.4375 174.088 61.0838 173.401 61.5384C172.715 61.9882 171.931 62.2131 171.051 62.2131C170.388 62.2131 169.845 62.1018 169.424 61.8793C169.007 61.6567 168.681 61.3963 168.444 61.098C168.207 60.7997 168.025 60.5346 167.897 60.3026H167.769V66.0909H165.646ZM167.727 56.5455C167.727 57.3125 167.838 57.9848 168.06 58.5625C168.283 59.1402 168.605 59.5923 169.026 59.919C169.448 60.241 169.964 60.402 170.575 60.402C171.209 60.402 171.739 60.2339 172.166 59.8977C172.592 59.5568 172.914 59.0952 173.131 58.5128C173.354 57.9304 173.465 57.2746 173.465 56.5455C173.465 55.8258 173.356 55.1795 173.139 54.6065C172.926 54.0336 172.604 53.5814 172.173 53.25C171.747 52.9186 171.214 52.7528 170.575 52.7528C169.959 52.7528 169.438 52.9115 169.012 53.2287C168.591 53.5459 168.271 53.9886 168.053 54.5568C167.836 55.125 167.727 55.7879 167.727 56.5455ZM182.721 62.2202C181.646 62.2202 180.721 61.9905 179.944 61.5312C179.172 61.0672 178.576 60.4162 178.154 59.5781C177.738 58.7353 177.529 57.7481 177.529 56.6165C177.529 55.4991 177.738 54.5142 178.154 53.6619C178.576 52.8097 179.163 52.1444 179.916 51.6662C180.673 51.188 181.559 50.9489 182.572 50.9489C183.188 50.9489 183.784 51.0507 184.362 51.2543C184.939 51.4579 185.458 51.7775 185.917 52.2131C186.376 52.6487 186.739 53.2145 187.004 53.9105C187.269 54.6018 187.402 55.4422 187.402 56.4318V57.1847H178.73V55.5938H185.321C185.321 55.035 185.207 54.5402 184.98 54.1094C184.752 53.6738 184.433 53.3305 184.021 53.0795C183.614 52.8286 183.135 52.7031 182.586 52.7031C181.99 52.7031 181.469 52.8499 181.024 53.1435C180.583 53.4323 180.242 53.8111 180.001 54.2798C179.764 54.7438 179.646 55.2481 179.646 55.7926V57.0355C179.646 57.7647 179.774 58.3849 180.029 58.8963C180.29 59.4077 180.652 59.7983 181.116 60.0682C181.58 60.3333 182.122 60.4659 182.742 60.4659C183.145 60.4659 183.512 60.4091 183.843 60.2955C184.175 60.1771 184.461 60.0019 184.703 59.7699C184.944 59.5379 185.129 59.2514 185.257 58.9105L187.267 59.2727C187.106 59.8646 186.817 60.383 186.4 60.8281C185.988 61.2685 185.47 61.6117 184.845 61.858C184.224 62.0994 183.517 62.2202 182.721 62.2202ZM189.788 62V51.0909H191.84V52.8239H191.954C192.153 52.2367 192.503 51.7751 193.005 51.4389C193.512 51.098 194.085 50.9276 194.724 50.9276C194.856 50.9276 195.013 50.9323 195.193 50.9418C195.377 50.9512 195.522 50.9631 195.626 50.9773V53.0085C195.541 52.9848 195.389 52.9588 195.171 52.9304C194.953 52.8973 194.736 52.8807 194.518 52.8807C194.016 52.8807 193.568 52.9872 193.175 53.2003C192.787 53.4086 192.479 53.6998 192.252 54.0739C192.025 54.4432 191.911 54.8646 191.911 55.3381V62H189.788ZM202.816 62V51.0909H204.855V52.8665H204.99C205.217 52.2652 205.589 51.7964 206.105 51.4602C206.621 51.1193 207.239 50.9489 207.959 50.9489C208.688 50.9489 209.298 51.1193 209.791 51.4602C210.288 51.8011 210.655 52.2699 210.892 52.8665H211.005C211.266 52.2841 211.68 51.8201 212.248 51.4744C212.816 51.1241 213.494 50.9489 214.28 50.9489C215.269 50.9489 216.076 51.259 216.701 51.8793C217.331 52.4995 217.646 53.4347 217.646 54.6847V62H215.522V54.8835C215.522 54.1449 215.321 53.6098 214.919 53.2784C214.516 52.947 214.036 52.7812 213.477 52.7812C212.786 52.7812 212.248 52.9943 211.865 53.4205C211.481 53.8419 211.289 54.384 211.289 55.0469V62H209.173V54.7486C209.173 54.1567 208.988 53.6809 208.619 53.321C208.25 52.9612 207.769 52.7812 207.177 52.7812C206.775 52.7812 206.403 52.8878 206.062 53.1009C205.726 53.3092 205.454 53.6004 205.245 53.9744C205.042 54.3485 204.94 54.7817 204.94 55.2741V62H202.816ZM225.117 62.2202C224.095 62.2202 223.202 61.9858 222.44 61.517C221.678 61.0483 221.086 60.3925 220.664 59.5497C220.243 58.7069 220.032 57.7221 220.032 56.5952C220.032 55.4635 220.243 54.474 220.664 53.6264C221.086 52.7789 221.678 52.1207 222.44 51.652C223.202 51.1832 224.095 50.9489 225.117 50.9489C226.14 50.9489 227.033 51.1832 227.795 51.652C228.557 52.1207 229.149 52.7789 229.571 53.6264C229.992 54.474 230.203 55.4635 230.203 56.5952C230.203 57.7221 229.992 58.7069 229.571 59.5497C229.149 60.3925 228.557 61.0483 227.795 61.517C227.033 61.9858 226.14 62.2202 225.117 62.2202ZM225.125 60.4375C225.787 60.4375 226.337 60.2623 226.772 59.9119C227.208 59.5616 227.53 59.0952 227.738 58.5128C227.951 57.9304 228.058 57.2888 228.058 56.5881C228.058 55.892 227.951 55.2528 227.738 54.6705C227.53 54.0833 227.208 53.6122 226.772 53.2571C226.337 52.902 225.787 52.7244 225.125 52.7244C224.457 52.7244 223.903 52.902 223.463 53.2571C223.027 53.6122 222.703 54.0833 222.49 54.6705C222.281 55.2528 222.177 55.892 222.177 56.5881C222.177 57.2888 222.281 57.9304 222.49 58.5128C222.703 59.0952 223.027 59.5616 223.463 59.9119C223.903 60.2623 224.457 60.4375 225.125 60.4375ZM234.727 55.5227V62H232.603V51.0909H234.641V52.8665H234.776C235.027 52.2888 235.42 51.8248 235.955 51.4744C236.495 51.1241 237.175 50.9489 237.994 50.9489C238.737 50.9489 239.388 51.1051 239.947 51.4176C240.505 51.7254 240.939 52.1847 241.246 52.7955C241.554 53.4062 241.708 54.1615 241.708 55.0611V62H239.585V55.3168C239.585 54.526 239.379 53.9081 238.967 53.4631C238.555 53.0133 237.989 52.7884 237.269 52.7884C236.777 52.7884 236.339 52.8949 235.955 53.108C235.577 53.321 235.276 53.6335 235.053 54.0455C234.836 54.4527 234.727 54.9451 234.727 55.5227ZM249.678 51.0909V52.7955H243.72V51.0909H249.678ZM245.318 48.4773H247.441V58.7969C247.441 59.2088 247.503 59.5189 247.626 59.7273C247.749 59.9309 247.908 60.0705 248.102 60.1463C248.301 60.2173 248.516 60.2528 248.748 60.2528C248.919 60.2528 249.068 60.241 249.196 60.2173C249.323 60.1937 249.423 60.1747 249.494 60.1605L249.877 61.9148C249.754 61.9621 249.579 62.0095 249.352 62.0568C249.125 62.1089 248.84 62.1373 248.5 62.142C247.941 62.1515 247.42 62.0521 246.937 61.8438C246.454 61.6354 246.063 61.3134 245.765 60.8778C245.467 60.4422 245.318 59.8954 245.318 59.2372V48.4773ZM254.416 55.5227V62H252.292V47.4545H254.387V52.8665H254.522C254.778 52.2794 255.168 51.813 255.694 51.4673C256.219 51.1217 256.906 50.9489 257.754 50.9489C258.502 50.9489 259.155 51.1027 259.714 51.4105C260.277 51.7183 260.713 52.1776 261.021 52.7884C261.333 53.3944 261.489 54.152 261.489 55.0611V62H259.366V55.3168C259.366 54.5166 259.16 53.8963 258.748 53.456C258.336 53.0109 257.763 52.7884 257.029 52.7884C256.527 52.7884 256.077 52.8949 255.68 53.108C255.287 53.321 254.977 53.6335 254.749 54.0455C254.527 54.4527 254.416 54.9451 254.416 55.5227Z" fill="#1F1F1F"/>
<rect x="520" y="31" width="48" height="48" rx="24" fill="#FFFDFD"/>
<path d="M544 51C545.1 51 546 50.1 546 49C546 47.9 545.1 47 544 47C542.9 47 542 47.9 542 49C542 50.1 542.9 51 544 51ZM544 53C542.9 53 542 53.9 542 55C542 56.1 542.9 57 544 57C545.1 57 546 56.1 546 55C546 53.9 545.1 53 544 53ZM544 59C542.9 59 542 59.9 542 61C542 62.1 542.9 63 544 63C545.1 63 546 62.1 546 61C546 59.9 545.1 59 544 59Z" fill="#757575"/>
</g>
<circle cx="200.5" cy="121" r="6" fill="#B8C7EE"/>
<path d="M215.733 126V115.818H216.966V120.352H222.395V115.818H223.628V126H222.395V121.446H216.966V126H215.733ZM229.109 126.159C228.42 126.159 227.815 125.995 227.295 125.667C226.778 125.339 226.373 124.88 226.082 124.29C225.793 123.7 225.649 123.01 225.649 122.222C225.649 121.426 225.793 120.732 226.082 120.138C226.373 119.545 226.778 119.085 227.295 118.756C227.815 118.428 228.42 118.264 229.109 118.264C229.799 118.264 230.402 118.428 230.919 118.756C231.439 119.085 231.844 119.545 232.132 120.138C232.424 120.732 232.57 121.426 232.57 122.222C232.57 123.01 232.424 123.7 232.132 124.29C231.844 124.88 231.439 125.339 230.919 125.667C230.402 125.995 229.799 126.159 229.109 126.159ZM229.109 125.105C229.633 125.105 230.064 124.971 230.402 124.702C230.74 124.434 230.99 124.081 231.153 123.643C231.315 123.206 231.396 122.732 231.396 122.222C231.396 121.711 231.315 121.236 231.153 120.795C230.99 120.354 230.74 119.998 230.402 119.726C230.064 119.454 229.633 119.318 229.109 119.318C228.586 119.318 228.155 119.454 227.817 119.726C227.479 119.998 227.228 120.354 227.066 120.795C226.904 121.236 226.822 121.711 226.822 122.222C226.822 122.732 226.904 123.206 227.066 123.643C227.228 124.081 227.479 124.434 227.817 124.702C228.155 124.971 228.586 125.105 229.109 125.105ZM234.431 126V118.364H235.564V119.557H235.664C235.823 119.149 236.08 118.833 236.434 118.607C236.789 118.379 237.215 118.264 237.712 118.264C238.216 118.264 238.635 118.379 238.97 118.607C239.308 118.833 239.571 119.149 239.76 119.557H239.84C240.035 119.162 240.329 118.849 240.72 118.617C241.111 118.382 241.58 118.264 242.127 118.264C242.809 118.264 243.368 118.478 243.802 118.906C244.236 119.33 244.453 119.991 244.453 120.889V126H243.28V120.889C243.28 120.326 243.126 119.923 242.818 119.681C242.509 119.439 242.147 119.318 241.729 119.318C241.192 119.318 240.776 119.481 240.481 119.805C240.186 120.127 240.039 120.535 240.039 121.028V126H238.845V120.77C238.845 120.336 238.705 119.986 238.423 119.721C238.141 119.452 237.778 119.318 237.334 119.318C237.029 119.318 236.744 119.399 236.479 119.562C236.217 119.724 236.005 119.95 235.843 120.238C235.684 120.523 235.604 120.853 235.604 121.227V126H234.431ZM249.87 126.159C249.135 126.159 248.5 125.997 247.966 125.672C247.436 125.344 247.027 124.886 246.738 124.3C246.453 123.71 246.311 123.024 246.311 122.241C246.311 121.459 246.453 120.77 246.738 120.173C247.027 119.573 247.428 119.106 247.941 118.771C248.458 118.433 249.062 118.264 249.751 118.264C250.149 118.264 250.541 118.33 250.929 118.463C251.317 118.596 251.67 118.811 251.988 119.109C252.306 119.404 252.56 119.795 252.749 120.283C252.938 120.77 253.032 121.37 253.032 122.082V122.58H247.146V121.565H251.839C251.839 121.134 251.753 120.75 251.581 120.412C251.412 120.074 251.17 119.807 250.855 119.612C250.543 119.416 250.175 119.318 249.751 119.318C249.284 119.318 248.879 119.434 248.538 119.666C248.2 119.895 247.94 120.193 247.757 120.561C247.575 120.929 247.484 121.323 247.484 121.744V122.42C247.484 122.997 247.583 123.486 247.782 123.887C247.984 124.285 248.265 124.588 248.622 124.797C248.98 125.002 249.396 125.105 249.87 125.105C250.179 125.105 250.457 125.062 250.706 124.976C250.957 124.886 251.175 124.754 251.357 124.578C251.539 124.399 251.68 124.177 251.779 123.912L252.913 124.23C252.794 124.615 252.593 124.953 252.311 125.244C252.03 125.533 251.682 125.758 251.267 125.92C250.853 126.08 250.387 126.159 249.87 126.159ZM257.989 126.159C257.3 126.159 256.695 125.995 256.175 125.667C255.658 125.339 255.253 124.88 254.962 124.29C254.673 123.7 254.529 123.01 254.529 122.222C254.529 121.426 254.673 120.732 254.962 120.138C255.253 119.545 255.658 119.085 256.175 118.756C256.695 118.428 257.3 118.264 257.989 118.264C258.679 118.264 259.282 118.428 259.799 118.756C260.319 119.085 260.724 119.545 261.012 120.138C261.304 120.732 261.45 121.426 261.45 122.222C261.45 123.01 261.304 123.7 261.012 124.29C260.724 124.88 260.319 125.339 259.799 125.667C259.282 125.995 258.679 126.159 257.989 126.159ZM257.989 125.105C258.513 125.105 258.944 124.971 259.282 124.702C259.62 124.434 259.87 124.081 260.033 123.643C260.195 123.206 260.276 122.732 260.276 122.222C260.276 121.711 260.195 121.236 260.033 120.795C259.87 120.354 259.62 119.998 259.282 119.726C258.944 119.454 258.513 119.318 257.989 119.318C257.466 119.318 257.035 119.454 256.697 119.726C256.359 119.998 256.108 120.354 255.946 120.795C255.784 121.236 255.702 121.711 255.702 122.222C255.702 122.732 255.784 123.206 255.946 123.643C256.108 124.081 256.359 124.434 256.697 124.702C257.035 124.971 257.466 125.105 257.989 125.105ZM264.781 126L262.454 118.364H263.687L265.338 124.21H265.417L267.048 118.364H268.301L269.912 124.19H269.991L271.642 118.364H272.875L270.548 126H269.395L267.724 120.134H267.605L265.934 126H264.781ZM275.669 121.406V126H274.496V118.364H275.629V119.557H275.729C275.908 119.169 276.18 118.857 276.544 118.622C276.909 118.384 277.379 118.264 277.956 118.264C278.473 118.264 278.926 118.37 279.313 118.582C279.701 118.791 280.003 119.109 280.218 119.537C280.434 119.961 280.541 120.498 280.541 121.148V126H279.368V121.227C279.368 120.627 279.212 120.16 278.901 119.825C278.589 119.487 278.162 119.318 277.618 119.318C277.243 119.318 276.909 119.399 276.614 119.562C276.322 119.724 276.092 119.961 275.923 120.273C275.754 120.584 275.669 120.962 275.669 121.406ZM285.957 126.159C285.221 126.159 284.586 125.997 284.053 125.672C283.523 125.344 283.113 124.886 282.825 124.3C282.54 123.71 282.397 123.024 282.397 122.241C282.397 121.459 282.54 120.77 282.825 120.173C283.113 119.573 283.514 119.106 284.028 118.771C284.545 118.433 285.148 118.264 285.838 118.264C286.235 118.264 286.628 118.33 287.016 118.463C287.404 118.596 287.757 118.811 288.075 119.109C288.393 119.404 288.647 119.795 288.836 120.283C289.024 120.77 289.119 121.37 289.119 122.082V122.58H283.233V121.565H287.926C287.926 121.134 287.84 120.75 287.667 120.412C287.498 120.074 287.256 119.807 286.941 119.612C286.63 119.416 286.262 119.318 285.838 119.318C285.37 119.318 284.966 119.434 284.625 119.666C284.287 119.895 284.026 120.193 283.844 120.561C283.662 120.929 283.571 121.323 283.571 121.744V122.42C283.571 122.997 283.67 123.486 283.869 123.887C284.071 124.285 284.351 124.588 284.709 124.797C285.067 125.002 285.483 125.105 285.957 125.105C286.265 125.105 286.544 125.062 286.792 124.976C287.044 124.886 287.261 124.754 287.443 124.578C287.626 124.399 287.767 124.177 287.866 123.912L289 124.23C288.88 124.615 288.68 124.953 288.398 125.244C288.116 125.533 287.768 125.758 287.354 125.92C286.94 126.08 286.474 126.159 285.957 126.159ZM290.974 126V118.364H292.107V119.517H292.187C292.326 119.139 292.578 118.833 292.942 118.597C293.307 118.362 293.718 118.244 294.175 118.244C294.262 118.244 294.369 118.246 294.499 118.249C294.628 118.253 294.726 118.258 294.792 118.264V119.457C294.752 119.447 294.661 119.433 294.518 119.413C294.379 119.389 294.232 119.378 294.076 119.378C293.705 119.378 293.373 119.456 293.082 119.612C292.793 119.764 292.565 119.976 292.396 120.248C292.23 120.516 292.147 120.823 292.147 121.168V126H290.974ZM301.662 120.074L300.608 120.372C300.542 120.196 300.444 120.026 300.314 119.86C300.189 119.691 300.016 119.552 299.797 119.442C299.579 119.333 299.299 119.278 298.957 119.278C298.49 119.278 298.1 119.386 297.789 119.602C297.481 119.814 297.327 120.084 297.327 120.412C297.327 120.704 297.433 120.934 297.645 121.103C297.857 121.272 298.188 121.413 298.639 121.526L299.773 121.804C300.455 121.97 300.964 122.223 301.299 122.565C301.634 122.903 301.801 123.339 301.801 123.872C301.801 124.31 301.675 124.701 301.423 125.045C301.175 125.39 300.827 125.662 300.379 125.861C299.932 126.06 299.411 126.159 298.818 126.159C298.039 126.159 297.394 125.99 296.884 125.652C296.374 125.314 296.051 124.82 295.915 124.17L297.028 123.892C297.134 124.303 297.335 124.611 297.63 124.817C297.928 125.022 298.318 125.125 298.798 125.125C299.345 125.125 299.779 125.009 300.101 124.777C300.426 124.542 300.588 124.26 300.588 123.932C300.588 123.667 300.495 123.445 300.31 123.266C300.124 123.083 299.839 122.947 299.454 122.858L298.182 122.56C297.482 122.394 296.969 122.137 296.64 121.789C296.316 121.438 296.153 120.999 296.153 120.472C296.153 120.041 296.274 119.66 296.516 119.328C296.761 118.997 297.095 118.737 297.515 118.548C297.94 118.359 298.42 118.264 298.957 118.264C299.713 118.264 300.306 118.43 300.737 118.761C301.171 119.093 301.479 119.53 301.662 120.074ZM304.81 121.406V126H303.637V115.818H304.81V119.557H304.91C305.089 119.162 305.357 118.849 305.715 118.617C306.077 118.382 306.557 118.264 307.157 118.264C307.677 118.264 308.133 118.369 308.524 118.577C308.915 118.783 309.219 119.099 309.434 119.527C309.653 119.951 309.762 120.491 309.762 121.148V126H308.589V121.227C308.589 120.621 308.431 120.152 308.117 119.82C307.805 119.486 307.372 119.318 306.819 119.318C306.434 119.318 306.09 119.399 305.785 119.562C305.483 119.724 305.245 119.961 305.069 120.273C304.897 120.584 304.81 120.962 304.81 121.406ZM311.979 126V118.364H313.152V126H311.979ZM312.575 117.091C312.347 117.091 312.149 117.013 311.984 116.857C311.821 116.701 311.74 116.514 311.74 116.295C311.74 116.077 311.821 115.889 311.984 115.734C312.149 115.578 312.347 115.5 312.575 115.5C312.804 115.5 312.999 115.578 313.162 115.734C313.328 115.889 313.41 116.077 313.41 116.295C313.41 116.514 313.328 116.701 313.162 116.857C312.999 117.013 312.804 117.091 312.575 117.091ZM315.371 128.864V118.364H316.504V119.577H316.644C316.73 119.444 316.849 119.275 317.002 119.07C317.157 118.861 317.379 118.675 317.668 118.513C317.959 118.347 318.354 118.264 318.851 118.264C319.494 118.264 320.061 118.425 320.551 118.746C321.042 119.068 321.425 119.524 321.7 120.114C321.975 120.704 322.112 121.4 322.112 122.202C322.112 123.01 321.975 123.711 321.7 124.305C321.425 124.895 321.043 125.352 320.556 125.677C320.069 125.998 319.507 126.159 318.871 126.159C318.38 126.159 317.988 126.078 317.693 125.915C317.398 125.75 317.171 125.562 317.012 125.354C316.852 125.142 316.73 124.966 316.644 124.827H316.544V128.864H315.371ZM316.524 122.182C316.524 122.759 316.609 123.267 316.778 123.708C316.947 124.146 317.194 124.489 317.519 124.737C317.843 124.982 318.241 125.105 318.712 125.105C319.202 125.105 319.612 124.976 319.94 124.717C320.271 124.455 320.52 124.104 320.686 123.663C320.855 123.219 320.939 122.725 320.939 122.182C320.939 121.645 320.856 121.161 320.69 120.73C320.528 120.296 320.281 119.953 319.95 119.701C319.622 119.446 319.209 119.318 318.712 119.318C318.235 119.318 317.833 119.439 317.509 119.681C317.184 119.92 316.939 120.254 316.773 120.685C316.607 121.113 316.524 121.612 316.524 122.182Z" fill="#757575"/>
<circle cx="349.5" cy="121" r="6" fill="#325CCA"/>
<path d="M364.733 126V115.818H368.173C368.969 115.818 369.622 115.954 370.132 116.226C370.643 116.494 371.02 116.864 371.266 117.335C371.511 117.805 371.634 118.34 371.634 118.94C371.634 119.54 371.511 120.072 371.266 120.536C371.02 121 370.644 121.365 370.137 121.63C369.63 121.892 368.982 122.023 368.193 122.023H365.409V120.909H368.153C368.697 120.909 369.134 120.83 369.466 120.67C369.801 120.511 370.043 120.286 370.192 119.994C370.344 119.699 370.42 119.348 370.42 118.94C370.42 118.533 370.344 118.176 370.192 117.871C370.039 117.567 369.796 117.331 369.461 117.165C369.126 116.996 368.684 116.912 368.134 116.912H365.966V126H364.733ZM369.526 121.426L372.031 126H370.599L368.134 121.426H369.526ZM376.719 126.159C375.983 126.159 375.348 125.997 374.814 125.672C374.284 125.344 373.875 124.886 373.587 124.3C373.301 123.71 373.159 123.024 373.159 122.241C373.159 121.459 373.301 120.77 373.587 120.173C373.875 119.573 374.276 119.106 374.79 118.771C375.307 118.433 375.91 118.264 376.599 118.264C376.997 118.264 377.39 118.33 377.778 118.463C378.165 118.596 378.518 118.811 378.837 119.109C379.155 119.404 379.408 119.795 379.597 120.283C379.786 120.77 379.881 121.37 379.881 122.082V122.58H373.994V121.565H378.687C378.687 121.134 378.601 120.75 378.429 120.412C378.26 120.074 378.018 119.807 377.703 119.612C377.391 119.416 377.024 119.318 376.599 119.318C376.132 119.318 375.728 119.434 375.386 119.666C375.048 119.895 374.788 120.193 374.606 120.561C374.423 120.929 374.332 121.323 374.332 121.744V122.42C374.332 122.997 374.432 123.486 374.631 123.887C374.833 124.285 375.113 124.588 375.471 124.797C375.829 125.002 376.245 125.105 376.719 125.105C377.027 125.105 377.305 125.062 377.554 124.976C377.806 124.886 378.023 124.754 378.205 124.578C378.387 124.399 378.528 124.177 378.628 123.912L379.761 124.23C379.642 124.615 379.441 124.953 379.16 125.244C378.878 125.533 378.53 125.758 378.116 125.92C377.701 126.08 377.236 126.159 376.719 126.159ZM381.735 128.864V118.364H382.869V119.577H383.008C383.094 119.444 383.214 119.275 383.366 119.07C383.522 118.861 383.744 118.675 384.032 118.513C384.324 118.347 384.718 118.264 385.215 118.264C385.858 118.264 386.425 118.425 386.916 118.746C387.406 119.068 387.789 119.524 388.064 120.114C388.339 120.704 388.477 121.4 388.477 122.202C388.477 123.01 388.339 123.711 388.064 124.305C387.789 124.895 387.408 125.352 386.921 125.677C386.434 125.998 385.872 126.159 385.235 126.159C384.745 126.159 384.352 126.078 384.057 125.915C383.762 125.75 383.535 125.562 383.376 125.354C383.217 125.142 383.094 124.966 383.008 124.827H382.909V128.864H381.735ZM382.889 122.182C382.889 122.759 382.973 123.267 383.142 123.708C383.311 124.146 383.558 124.489 383.883 124.737C384.208 124.982 384.606 125.105 385.076 125.105C385.567 125.105 385.976 124.976 386.304 124.717C386.636 124.455 386.884 124.104 387.05 123.663C387.219 123.219 387.304 122.725 387.304 122.182C387.304 121.645 387.221 121.161 387.055 120.73C386.893 120.296 386.646 119.953 386.314 119.701C385.986 119.446 385.573 119.318 385.076 119.318C384.599 119.318 384.198 119.439 383.873 119.681C383.548 119.92 383.303 120.254 383.137 120.685C382.972 121.113 382.889 121.612 382.889 122.182ZM392.584 126.179C392.1 126.179 391.661 126.088 391.266 125.906C390.872 125.72 390.559 125.453 390.327 125.105C390.095 124.754 389.979 124.33 389.979 123.832C389.979 123.395 390.065 123.04 390.237 122.768C390.41 122.493 390.64 122.278 390.928 122.122C391.217 121.966 391.535 121.85 391.883 121.774C392.234 121.695 392.587 121.632 392.942 121.585C393.406 121.526 393.782 121.481 394.07 121.451C394.362 121.418 394.574 121.363 394.707 121.287C394.843 121.211 394.91 121.078 394.91 120.889V120.849C394.91 120.359 394.776 119.978 394.508 119.706C394.243 119.434 393.84 119.298 393.3 119.298C392.74 119.298 392.3 119.421 391.982 119.666C391.664 119.911 391.44 120.173 391.311 120.452L390.197 120.054C390.396 119.59 390.661 119.229 390.993 118.97C391.328 118.708 391.692 118.526 392.087 118.423C392.484 118.317 392.875 118.264 393.26 118.264C393.505 118.264 393.787 118.294 394.105 118.354C394.427 118.41 394.736 118.528 395.035 118.707C395.336 118.886 395.587 119.156 395.785 119.517C395.984 119.878 396.084 120.362 396.084 120.969V126H394.91V124.966H394.851C394.771 125.132 394.639 125.309 394.453 125.498C394.267 125.687 394.021 125.848 393.712 125.98C393.404 126.113 393.028 126.179 392.584 126.179ZM392.763 125.125C393.227 125.125 393.618 125.034 393.936 124.852C394.258 124.669 394.499 124.434 394.662 124.146C394.828 123.857 394.91 123.554 394.91 123.236V122.162C394.861 122.222 394.751 122.276 394.582 122.326C394.417 122.372 394.224 122.414 394.006 122.45C393.79 122.483 393.58 122.513 393.374 122.54C393.172 122.563 393.008 122.583 392.882 122.599C392.577 122.639 392.292 122.704 392.027 122.793C391.765 122.879 391.553 123.01 391.391 123.186C391.231 123.358 391.152 123.594 391.152 123.892C391.152 124.3 391.303 124.608 391.604 124.817C391.909 125.022 392.295 125.125 392.763 125.125ZM398.295 126V118.364H399.469V126H398.295ZM398.892 117.091C398.663 117.091 398.466 117.013 398.3 116.857C398.138 116.701 398.057 116.514 398.057 116.295C398.057 116.077 398.138 115.889 398.3 115.734C398.466 115.578 398.663 115.5 398.892 115.5C399.121 115.5 399.316 115.578 399.479 115.734C399.644 115.889 399.727 116.077 399.727 116.295C399.727 116.514 399.644 116.701 399.479 116.857C399.316 117.013 399.121 117.091 398.892 117.091ZM401.688 126V118.364H402.821V119.517H402.901C403.04 119.139 403.292 118.833 403.656 118.597C404.021 118.362 404.432 118.244 404.889 118.244C404.975 118.244 405.083 118.246 405.212 118.249C405.342 118.253 405.439 118.258 405.506 118.264V119.457C405.466 119.447 405.375 119.433 405.232 119.413C405.093 119.389 404.946 119.378 404.79 119.378C404.419 119.378 404.087 119.456 403.795 119.612C403.507 119.764 403.278 119.976 403.109 120.248C402.944 120.516 402.861 120.823 402.861 121.168V126H401.688ZM412.376 120.074L411.322 120.372C411.255 120.196 411.158 120.026 411.028 119.86C410.902 119.691 410.73 119.552 410.511 119.442C410.293 119.333 410.012 119.278 409.671 119.278C409.204 119.278 408.814 119.386 408.503 119.602C408.195 119.814 408.04 120.084 408.04 120.412C408.04 120.704 408.146 120.934 408.359 121.103C408.571 121.272 408.902 121.413 409.353 121.526L410.486 121.804C411.169 121.97 411.678 122.223 412.013 122.565C412.347 122.903 412.515 123.339 412.515 123.872C412.515 124.31 412.389 124.701 412.137 125.045C411.888 125.39 411.54 125.662 411.093 125.861C410.645 126.06 410.125 126.159 409.532 126.159C408.753 126.159 408.108 125.99 407.598 125.652C407.087 125.314 406.764 124.82 406.628 124.17L407.742 123.892C407.848 124.303 408.049 124.611 408.344 124.817C408.642 125.022 409.031 125.125 409.512 125.125C410.059 125.125 410.493 125.009 410.815 124.777C411.139 124.542 411.302 124.26 411.302 123.932C411.302 123.667 411.209 123.445 411.023 123.266C410.838 123.083 410.553 122.947 410.168 122.858L408.895 122.56C408.196 122.394 407.682 122.137 407.354 121.789C407.029 121.438 406.867 120.999 406.867 120.472C406.867 120.041 406.988 119.66 407.23 119.328C407.475 118.997 407.808 118.737 408.229 118.548C408.654 118.359 409.134 118.264 409.671 118.264C410.427 118.264 411.02 118.43 411.451 118.761C411.885 119.093 412.193 119.53 412.376 120.074Z" fill="#757575"/>
<g clip-path="url(#clip1_1082_4792)">
<path d="M40.9034 326V325.233L43.7841 322.08C44.1222 321.71 44.4006 321.389 44.6193 321.116C44.8381 320.841 45 320.582 45.1051 320.341C45.2131 320.097 45.267 319.841 45.267 319.574C45.267 319.267 45.1932 319.001 45.0455 318.777C44.9006 318.553 44.7017 318.379 44.4489 318.257C44.196 318.135 43.9119 318.074 43.5966 318.074C43.2614 318.074 42.9688 318.143 42.7188 318.283C42.4716 318.419 42.2798 318.611 42.1435 318.858C42.0099 319.105 41.9432 319.395 41.9432 319.727H40.9375C40.9375 319.216 41.0554 318.767 41.2912 318.381C41.527 317.994 41.848 317.693 42.2543 317.477C42.6634 317.261 43.1222 317.153 43.6307 317.153C44.142 317.153 44.5952 317.261 44.9901 317.477C45.3849 317.693 45.6946 317.984 45.919 318.351C46.1435 318.717 46.2557 319.125 46.2557 319.574C46.2557 319.895 46.1974 320.209 46.081 320.516C45.9673 320.82 45.7685 321.159 45.4844 321.534C45.2031 321.906 44.8125 322.361 44.3125 322.898L42.3523 324.994V325.062H46.4091V326H40.9034ZM51.0756 326.119C50.4336 326.119 49.8867 325.945 49.435 325.595C48.9833 325.243 48.6381 324.733 48.3995 324.065C48.1609 323.395 48.0415 322.585 48.0415 321.636C48.0415 320.693 48.1609 319.888 48.3995 319.22C48.641 318.55 48.9876 318.038 49.4393 317.686C49.8938 317.331 50.4393 317.153 51.0756 317.153C51.712 317.153 52.256 317.331 52.7077 317.686C53.1623 318.038 53.5089 318.55 53.7475 319.22C53.989 319.888 54.1097 320.693 54.1097 321.636C54.1097 322.585 53.9904 323.395 53.7518 324.065C53.5131 324.733 53.168 325.243 52.7162 325.595C52.2645 325.945 51.7177 326.119 51.0756 326.119ZM51.0756 325.182C51.712 325.182 52.2063 324.875 52.5586 324.261C52.9109 323.648 53.087 322.773 53.087 321.636C53.087 320.881 53.006 320.237 52.8441 319.706C52.685 319.175 52.4549 318.77 52.1537 318.491C51.8555 318.213 51.4961 318.074 51.0756 318.074C50.4449 318.074 49.952 318.385 49.5969 319.007C49.2418 319.626 49.0643 320.503 49.0643 321.636C49.0643 322.392 49.1438 323.034 49.3029 323.562C49.462 324.091 49.6907 324.493 49.989 324.768C50.2901 325.044 50.6523 325.182 51.0756 325.182Z" fill="#BDBDBD"/>
<path d="M48.75 374.119C48.108 374.119 47.5611 373.945 47.1094 373.595C46.6577 373.243 46.3125 372.733 46.0739 372.065C45.8352 371.395 45.7159 370.585 45.7159 369.636C45.7159 368.693 45.8352 367.888 46.0739 367.22C46.3153 366.55 46.6619 366.038 47.1136 365.686C47.5682 365.331 48.1136 365.153 48.75 365.153C49.3864 365.153 49.9304 365.331 50.3821 365.686C50.8366 366.038 51.1832 366.55 51.4219 367.22C51.6634 367.888 51.7841 368.693 51.7841 369.636C51.7841 370.585 51.6648 371.395 51.4261 372.065C51.1875 372.733 50.8423 373.243 50.3906 373.595C49.9389 373.945 49.392 374.119 48.75 374.119ZM48.75 373.182C49.3864 373.182 49.8807 372.875 50.233 372.261C50.5852 371.648 50.7614 370.773 50.7614 369.636C50.7614 368.881 50.6804 368.237 50.5185 367.706C50.3594 367.175 50.1293 366.77 49.8281 366.491C49.5298 366.213 49.1705 366.074 48.75 366.074C48.1193 366.074 47.6264 366.385 47.2713 367.007C46.9162 367.626 46.7386 368.503 46.7386 369.636C46.7386 370.392 46.8182 371.034 46.9773 371.562C47.1364 372.091 47.3651 372.493 47.6634 372.768C47.9645 373.044 48.3267 373.182 48.75 373.182Z" fill="#BDBDBD"/>
<path d="M40.6989 274.21V273.341L44.5341 267.273H45.1648V268.619H44.7386L41.8409 273.205V273.273H47.0057V274.21H40.6989ZM44.8068 276V273.946V273.541V267.273H45.8125V276H44.8068ZM51.5092 276.119C50.8672 276.119 50.3203 275.945 49.8686 275.595C49.4169 275.243 49.0717 274.733 48.8331 274.065C48.5944 273.395 48.4751 272.585 48.4751 271.636C48.4751 270.693 48.5944 269.888 48.8331 269.22C49.0746 268.55 49.4212 268.038 49.8729 267.686C50.3274 267.331 50.8729 267.153 51.5092 267.153C52.1456 267.153 52.6896 267.331 53.1413 267.686C53.5959 268.038 53.9425 268.55 54.1811 269.22C54.4226 269.888 54.5433 270.693 54.5433 271.636C54.5433 272.585 54.424 273.395 54.1854 274.065C53.9467 274.733 53.6015 275.243 53.1498 275.595C52.6981 275.945 52.1513 276.119 51.5092 276.119ZM51.5092 275.182C52.1456 275.182 52.6399 274.875 52.9922 274.261C53.3444 273.648 53.5206 272.773 53.5206 271.636C53.5206 270.881 53.4396 270.237 53.2777 269.706C53.1186 269.175 52.8885 268.77 52.5873 268.491C52.289 268.213 51.9297 268.074 51.5092 268.074C50.8785 268.074 50.3856 268.385 50.0305 269.007C49.6754 269.626 49.4979 270.503 49.4979 271.636C49.4979 272.392 49.5774 273.034 49.7365 273.562C49.8956 274.091 50.1243 274.493 50.4226 274.768C50.7237 275.044 51.0859 275.182 51.5092 275.182Z" fill="#BDBDBD"/>
<path d="M43.8011 228.119C43.4432 228.114 43.0852 228.045 42.7273 227.915C42.3693 227.784 42.0426 227.564 41.7472 227.254C41.4517 226.942 41.2145 226.52 41.0355 225.989C40.8565 225.455 40.767 224.784 40.767 223.977C40.767 223.205 40.8395 222.52 40.9844 221.923C41.1293 221.324 41.3395 220.82 41.6151 220.411C41.8906 219.999 42.223 219.686 42.6122 219.473C43.0043 219.26 43.446 219.153 43.9375 219.153C44.4261 219.153 44.8608 219.251 45.2415 219.447C45.625 219.641 45.9375 219.911 46.179 220.257C46.4205 220.604 46.5767 221.003 46.6477 221.455H45.608C45.5114 221.062 45.3239 220.737 45.0455 220.479C44.767 220.22 44.3977 220.091 43.9375 220.091C43.2614 220.091 42.7287 220.385 42.3395 220.973C41.9531 221.561 41.7585 222.386 41.7557 223.449H41.8239C41.983 223.207 42.1719 223.001 42.3906 222.831C42.6122 222.658 42.8565 222.524 43.1236 222.43C43.3906 222.337 43.6733 222.29 43.9716 222.29C44.4716 222.29 44.929 222.415 45.3438 222.665C45.7585 222.912 46.0909 223.254 46.3409 223.692C46.5909 224.126 46.7159 224.625 46.7159 225.188C46.7159 225.727 46.5952 226.222 46.3537 226.67C46.1122 227.116 45.7727 227.472 45.3352 227.736C44.9006 227.997 44.3892 228.125 43.8011 228.119ZM43.8011 227.182C44.1591 227.182 44.4801 227.092 44.7642 226.913C45.0511 226.734 45.277 226.494 45.4418 226.193C45.6094 225.892 45.6932 225.557 45.6932 225.188C45.6932 224.827 45.6122 224.499 45.4503 224.203C45.2912 223.905 45.071 223.668 44.7898 223.491C44.5114 223.315 44.1932 223.227 43.8352 223.227C43.5653 223.227 43.3139 223.281 43.081 223.389C42.848 223.494 42.6435 223.639 42.4673 223.824C42.294 224.009 42.1577 224.22 42.0582 224.459C41.9588 224.695 41.9091 224.943 41.9091 225.205C41.9091 225.551 41.9901 225.875 42.152 226.176C42.3168 226.477 42.5412 226.72 42.8253 226.905C43.1122 227.089 43.4375 227.182 43.8011 227.182ZM51.2983 228.119C50.6562 228.119 50.1094 227.945 49.6577 227.595C49.206 227.243 48.8608 226.733 48.6221 226.065C48.3835 225.395 48.2642 224.585 48.2642 223.636C48.2642 222.693 48.3835 221.888 48.6221 221.22C48.8636 220.55 49.2102 220.038 49.6619 219.686C50.1165 219.331 50.6619 219.153 51.2983 219.153C51.9346 219.153 52.4787 219.331 52.9304 219.686C53.3849 220.038 53.7315 220.55 53.9702 221.22C54.2116 221.888 54.3324 222.693 54.3324 223.636C54.3324 224.585 54.2131 225.395 53.9744 226.065C53.7358 226.733 53.3906 227.243 52.9389 227.595C52.4872 227.945 51.9403 228.119 51.2983 228.119ZM51.2983 227.182C51.9346 227.182 52.429 226.875 52.7812 226.261C53.1335 225.648 53.3096 224.773 53.3096 223.636C53.3096 222.881 53.2287 222.237 53.0667 221.706C52.9077 221.175 52.6775 220.77 52.3764 220.491C52.0781 220.213 51.7187 220.074 51.2983 220.074C50.6676 220.074 50.1747 220.385 49.8196 221.007C49.4645 221.626 49.2869 222.503 49.2869 223.636C49.2869 224.392 49.3665 225.034 49.5256 225.562C49.6846 226.091 49.9133 226.493 50.2116 226.768C50.5128 227.044 50.875 227.182 51.2983 227.182Z" fill="#BDBDBD"/>
<path d="M43.6989 179.119C43.1136 179.119 42.5966 179.016 42.1477 178.808C41.7017 178.598 41.3537 178.31 41.1037 177.943C40.8537 177.574 40.7301 177.153 40.733 176.682C40.7301 176.312 40.8026 175.972 40.9503 175.659C41.098 175.344 41.2997 175.081 41.5554 174.871C41.8139 174.658 42.1023 174.523 42.4205 174.466V174.415C42.0028 174.307 41.6705 174.072 41.4233 173.712C41.1761 173.348 41.054 172.935 41.0568 172.472C41.054 172.028 41.1662 171.632 41.3935 171.283C41.6207 170.933 41.9332 170.658 42.331 170.456C42.7315 170.254 43.1875 170.153 43.6989 170.153C44.2045 170.153 44.6563 170.254 45.054 170.456C45.4517 170.658 45.7642 170.933 45.9915 171.283C46.2216 171.632 46.3381 172.028 46.3409 172.472C46.3381 172.935 46.2116 173.348 45.9616 173.712C45.7145 174.072 45.3864 174.307 44.9773 174.415V174.466C45.2926 174.523 45.5767 174.658 45.8295 174.871C46.0824 175.081 46.2841 175.344 46.4347 175.659C46.5852 175.972 46.6619 176.312 46.6648 176.682C46.6619 177.153 46.5341 177.574 46.2812 177.943C46.0312 178.31 45.6832 178.598 45.2372 178.808C44.794 179.016 44.2813 179.119 43.6989 179.119ZM43.6989 178.182C44.0938 178.182 44.4347 178.118 44.7216 177.99C45.0085 177.862 45.2301 177.682 45.3864 177.449C45.5426 177.216 45.6222 176.943 45.625 176.631C45.6222 176.301 45.5369 176.01 45.3693 175.757C45.2017 175.504 44.973 175.305 44.6832 175.161C44.3963 175.016 44.0682 174.943 43.6989 174.943C43.3267 174.943 42.9943 175.016 42.7017 175.161C42.4119 175.305 42.1832 175.504 42.0156 175.757C41.8509 176.01 41.7699 176.301 41.7727 176.631C41.7699 176.943 41.8452 177.216 41.9986 177.449C42.1548 177.682 42.3778 177.862 42.6676 177.99C42.9574 178.118 43.3011 178.182 43.6989 178.182ZM43.6989 174.04C44.0114 174.04 44.2884 173.977 44.5298 173.852C44.7741 173.727 44.9659 173.553 45.1051 173.328C45.2443 173.104 45.3153 172.841 45.3182 172.54C45.3153 172.244 45.2457 171.987 45.1094 171.768C44.973 171.547 44.7841 171.376 44.5426 171.257C44.3011 171.135 44.0199 171.074 43.6989 171.074C43.3722 171.074 43.0866 171.135 42.8423 171.257C42.598 171.376 42.4091 171.547 42.2756 171.768C42.142 171.987 42.0767 172.244 42.0795 172.54C42.0767 172.841 42.1435 173.104 42.2798 173.328C42.419 173.553 42.6108 173.727 42.8551 173.852C43.0994 173.977 43.3807 174.04 43.6989 174.04ZM51.2045 179.119C50.5625 179.119 50.0156 178.945 49.5639 178.595C49.1122 178.243 48.767 177.733 48.5284 177.065C48.2898 176.395 48.1704 175.585 48.1704 174.636C48.1704 173.693 48.2898 172.888 48.5284 172.22C48.7699 171.55 49.1165 171.038 49.5682 170.686C50.0227 170.331 50.5682 170.153 51.2045 170.153C51.8409 170.153 52.3849 170.331 52.8366 170.686C53.2912 171.038 53.6378 171.55 53.8764 172.22C54.1179 172.888 54.2386 173.693 54.2386 174.636C54.2386 175.585 54.1193 176.395 53.8807 177.065C53.642 177.733 53.2969 178.243 52.8452 178.595C52.3935 178.945 51.8466 179.119 51.2045 179.119ZM51.2045 178.182C51.8409 178.182 52.3352 177.875 52.6875 177.261C53.0398 176.648 53.2159 175.773 53.2159 174.636C53.2159 173.881 53.1349 173.237 52.973 172.706C52.8139 172.175 52.5838 171.77 52.2827 171.491C51.9844 171.213 51.625 171.074 51.2045 171.074C50.5738 171.074 50.081 171.385 49.7258 172.007C49.3707 172.626 49.1932 173.503 49.1932 174.636C49.1932 175.392 49.2727 176.034 49.4318 176.562C49.5909 177.091 49.8196 177.493 50.1179 177.768C50.419 178.044 50.7812 178.182 51.2045 178.182Z" fill="#BDBDBD"/>
</g>
<g clip-path="url(#clip2_1082_4792)">
<path d="M80.3977 347.273H81.4545V353.511C81.4545 354.068 81.3523 354.541 81.1477 354.93C80.9432 355.32 80.6548 355.615 80.2827 355.817C79.9105 356.018 79.4716 356.119 78.9659 356.119C78.4886 356.119 78.0639 356.033 77.6918 355.859C77.3196 355.683 77.027 355.433 76.8139 355.109C76.6009 354.786 76.4943 354.401 76.4943 353.955H77.5341C77.5341 354.202 77.5952 354.418 77.7173 354.602C77.8423 354.784 78.0128 354.926 78.2287 355.028C78.4446 355.131 78.6903 355.182 78.9659 355.182C79.2699 355.182 79.5284 355.118 79.7415 354.99C79.9545 354.862 80.1165 354.675 80.2273 354.428C80.3409 354.178 80.3977 353.872 80.3977 353.511V347.273ZM85.4222 356.153C85.0074 356.153 84.631 356.075 84.293 355.919C83.9549 355.76 83.6864 355.531 83.4876 355.233C83.2887 354.932 83.1893 354.568 83.1893 354.142C83.1893 353.767 83.2631 353.463 83.4109 353.23C83.5586 352.994 83.756 352.81 84.0032 352.676C84.2503 352.543 84.5231 352.443 84.8214 352.378C85.1225 352.31 85.4251 352.256 85.729 352.216C86.1268 352.165 86.4492 352.126 86.6964 352.101C86.9464 352.072 87.1282 352.026 87.2418 351.96C87.3583 351.895 87.4165 351.781 87.4165 351.619V351.585C87.4165 351.165 87.3015 350.838 87.0714 350.605C86.8441 350.372 86.4989 350.256 86.0359 350.256C85.5557 350.256 85.1793 350.361 84.9066 350.571C84.6339 350.781 84.4421 351.006 84.3313 351.244L83.3768 350.903C83.5472 350.506 83.7745 350.196 84.0586 349.974C84.3455 349.75 84.658 349.594 84.9961 349.506C85.337 349.415 85.6722 349.369 86.0018 349.369C86.212 349.369 86.4535 349.395 86.7262 349.446C87.0018 349.494 87.2674 349.595 87.5231 349.749C87.7816 349.902 87.9961 350.134 88.1665 350.443C88.337 350.753 88.4222 351.168 88.4222 351.688V356H87.4165V355.114H87.3654C87.2972 355.256 87.1836 355.408 87.0245 355.57C86.8654 355.732 86.6538 355.869 86.3895 355.983C86.1253 356.097 85.8029 356.153 85.4222 356.153ZM85.5756 355.25C85.9734 355.25 86.3086 355.172 86.5813 355.016C86.8569 354.859 87.0643 354.658 87.2035 354.411C87.3455 354.163 87.4165 353.903 87.4165 353.631V352.71C87.3739 352.761 87.2802 352.808 87.1353 352.851C86.9932 352.891 86.8285 352.926 86.641 352.957C86.4563 352.986 86.2759 353.011 86.0998 353.034C85.9265 353.054 85.7859 353.071 85.6779 353.085C85.4165 353.119 85.1722 353.175 84.9449 353.251C84.7205 353.325 84.5387 353.437 84.3995 353.588C84.2631 353.736 84.1949 353.937 84.1949 354.193C84.1949 354.543 84.3242 354.807 84.5827 354.986C84.8441 355.162 85.1751 355.25 85.5756 355.25ZM91.3235 352.062V356H90.3178V349.455H91.2894V350.477H91.3746C91.528 350.145 91.761 349.878 92.0735 349.676C92.386 349.472 92.7894 349.369 93.2837 349.369C93.7269 349.369 94.1147 349.46 94.4471 349.642C94.7794 349.821 95.038 350.094 95.2226 350.46C95.4073 350.824 95.4996 351.284 95.4996 351.841V356H94.4939V351.909C94.4939 351.395 94.3604 350.994 94.0934 350.707C93.8263 350.418 93.4598 350.273 92.9939 350.273C92.6729 350.273 92.386 350.342 92.1331 350.482C91.8831 350.621 91.6857 350.824 91.5408 351.091C91.3959 351.358 91.3235 351.682 91.3235 352.062Z" fill="#BDBDBD"/>
<rect x="102.987" y="191" width="16.6076" height="141" fill="#B8C7EE"/>
<rect x="78.0759" y="298" width="16.6076" height="34" fill="#325CCA"/>
</g>
<g clip-path="url(#clip3_1082_4792)">
<path d="M172.55 356V347.273H177.783V348.21H173.607V351.159H177.391V352.097H173.607V356H172.55ZM181.781 356.136C181.15 356.136 180.606 355.997 180.149 355.719C179.694 355.438 179.343 355.045 179.096 354.543C178.852 354.037 178.73 353.449 178.73 352.778C178.73 352.108 178.852 351.517 179.096 351.006C179.343 350.491 179.687 350.091 180.128 349.804C180.571 349.514 181.088 349.369 181.679 349.369C182.02 349.369 182.356 349.426 182.689 349.54C183.021 349.653 183.324 349.838 183.596 350.094C183.869 350.347 184.086 350.682 184.248 351.099C184.41 351.517 184.491 352.031 184.491 352.642V353.068H179.446V352.199H183.468C183.468 351.83 183.395 351.5 183.247 351.21C183.102 350.92 182.895 350.692 182.625 350.524C182.358 350.357 182.042 350.273 181.679 350.273C181.278 350.273 180.931 350.372 180.639 350.571C180.349 350.767 180.126 351.023 179.97 351.338C179.814 351.653 179.735 351.991 179.735 352.352V352.932C179.735 353.426 179.821 353.845 179.991 354.189C180.164 354.53 180.405 354.79 180.711 354.969C181.018 355.145 181.375 355.233 181.781 355.233C182.045 355.233 182.284 355.196 182.497 355.122C182.713 355.045 182.899 354.932 183.055 354.781C183.211 354.628 183.332 354.437 183.417 354.21L184.389 354.483C184.287 354.812 184.115 355.102 183.873 355.352C183.632 355.599 183.333 355.793 182.978 355.932C182.623 356.068 182.224 356.136 181.781 356.136ZM186.217 356V347.273H187.223V350.494H187.308C187.382 350.381 187.484 350.236 187.615 350.06C187.749 349.881 187.939 349.722 188.186 349.582C188.436 349.44 188.774 349.369 189.2 349.369C189.751 349.369 190.237 349.507 190.658 349.783C191.078 350.058 191.406 350.449 191.642 350.955C191.878 351.46 191.996 352.057 191.996 352.744C191.996 353.438 191.878 354.038 191.642 354.547C191.406 355.053 191.08 355.445 190.662 355.723C190.244 355.999 189.763 356.136 189.217 356.136C188.797 356.136 188.46 356.067 188.207 355.928C187.955 355.786 187.76 355.625 187.624 355.446C187.487 355.264 187.382 355.114 187.308 354.994H187.189V356H186.217ZM187.206 352.727C187.206 353.222 187.278 353.658 187.423 354.036C187.568 354.411 187.78 354.705 188.058 354.918C188.337 355.128 188.678 355.233 189.081 355.233C189.501 355.233 189.852 355.122 190.134 354.901C190.418 354.676 190.631 354.375 190.773 353.997C190.918 353.616 190.99 353.193 190.99 352.727C190.99 352.267 190.919 351.852 190.777 351.483C190.638 351.111 190.426 350.817 190.142 350.601C189.861 350.382 189.507 350.273 189.081 350.273C188.672 350.273 188.328 350.376 188.05 350.584C187.771 350.788 187.561 351.075 187.419 351.445C187.277 351.811 187.206 352.239 187.206 352.727Z" fill="#BDBDBD"/>
<rect x="172.532" y="207" width="16.6076" height="125" fill="#B8C7EE"/>
<rect x="197.443" y="253" width="16.6076" height="79" fill="#325CCA"/>
</g>
<g clip-path="url(#clip4_1082_4792)">
<path d="M259.741 347.273H261.002L263.968 354.517H264.07L267.036 347.273H268.298V356H267.309V349.369H267.224L264.497 356H263.542L260.815 349.369H260.73V356H259.741V347.273ZM272.266 356.153C271.852 356.153 271.475 356.075 271.137 355.919C270.799 355.76 270.531 355.531 270.332 355.233C270.133 354.932 270.034 354.568 270.034 354.142C270.034 353.767 270.107 353.463 270.255 353.23C270.403 352.994 270.6 352.81 270.847 352.676C271.095 352.543 271.367 352.443 271.666 352.378C271.967 352.31 272.269 352.256 272.573 352.216C272.971 352.165 273.293 352.126 273.541 352.101C273.791 352.072 273.972 352.026 274.086 351.96C274.203 351.895 274.261 351.781 274.261 351.619V351.585C274.261 351.165 274.146 350.838 273.916 350.605C273.688 350.372 273.343 350.256 272.88 350.256C272.4 350.256 272.024 350.361 271.751 350.571C271.478 350.781 271.286 351.006 271.176 351.244L270.221 350.903C270.391 350.506 270.619 350.196 270.903 349.974C271.19 349.75 271.502 349.594 271.84 349.506C272.181 349.415 272.516 349.369 272.846 349.369C273.056 349.369 273.298 349.395 273.57 349.446C273.846 349.494 274.112 349.595 274.367 349.749C274.626 349.902 274.84 350.134 275.011 350.443C275.181 350.753 275.266 351.168 275.266 351.688V356H274.261V355.114H274.21C274.141 355.256 274.028 355.408 273.869 355.57C273.71 355.732 273.498 355.869 273.234 355.983C272.97 356.097 272.647 356.153 272.266 356.153ZM272.42 355.25C272.818 355.25 273.153 355.172 273.426 355.016C273.701 354.859 273.909 354.658 274.048 354.411C274.19 354.163 274.261 353.903 274.261 353.631V352.71C274.218 352.761 274.124 352.808 273.98 352.851C273.837 352.891 273.673 352.926 273.485 352.957C273.301 352.986 273.12 353.011 272.944 353.034C272.771 353.054 272.63 353.071 272.522 353.085C272.261 353.119 272.016 353.175 271.789 353.251C271.565 353.325 271.383 353.437 271.244 353.588C271.107 353.736 271.039 353.937 271.039 354.193C271.039 354.543 271.168 354.807 271.427 354.986C271.688 355.162 272.019 355.25 272.42 355.25ZM277.162 356V349.455H278.134V350.443H278.202C278.321 350.119 278.537 349.857 278.85 349.655C279.162 349.453 279.514 349.352 279.906 349.352C279.98 349.352 280.073 349.354 280.183 349.357C280.294 349.359 280.378 349.364 280.435 349.369V350.392C280.401 350.384 280.323 350.371 280.2 350.354C280.081 350.334 279.955 350.324 279.821 350.324C279.503 350.324 279.219 350.391 278.969 350.524C278.722 350.655 278.526 350.837 278.381 351.07C278.239 351.3 278.168 351.562 278.168 351.858V356H277.162ZM284.147 356.136C283.533 356.136 283.005 355.991 282.562 355.702C282.118 355.412 281.777 355.013 281.539 354.504C281.3 353.996 281.181 353.415 281.181 352.761C281.181 352.097 281.303 351.51 281.547 351.001C281.794 350.49 282.138 350.091 282.579 349.804C283.022 349.514 283.539 349.369 284.13 349.369C284.59 349.369 285.005 349.455 285.374 349.625C285.743 349.795 286.046 350.034 286.282 350.341C286.517 350.648 286.664 351.006 286.721 351.415H285.715C285.638 351.116 285.468 350.852 285.204 350.622C284.942 350.389 284.59 350.273 284.147 350.273C283.755 350.273 283.411 350.375 283.116 350.58C282.823 350.781 282.594 351.067 282.429 351.436C282.267 351.803 282.187 352.233 282.187 352.727C282.187 353.233 282.266 353.673 282.425 354.048C282.587 354.423 282.814 354.714 283.107 354.922C283.402 355.129 283.749 355.233 284.147 355.233C284.408 355.233 284.645 355.188 284.858 355.097C285.071 355.006 285.252 354.875 285.4 354.705C285.547 354.534 285.652 354.33 285.715 354.091H286.721C286.664 354.477 286.523 354.825 286.299 355.135C286.077 355.442 285.783 355.686 285.417 355.868C285.053 356.047 284.63 356.136 284.147 356.136ZM289.256 352.062V356H288.251V347.273H289.256V350.477H289.342C289.495 350.139 289.725 349.871 290.032 349.672C290.342 349.47 290.754 349.369 291.268 349.369C291.714 349.369 292.104 349.459 292.44 349.638C292.775 349.814 293.035 350.085 293.22 350.452C293.407 350.815 293.501 351.278 293.501 351.841V356H292.495V351.909C292.495 351.389 292.36 350.987 292.09 350.703C291.823 350.416 291.452 350.273 290.978 350.273C290.649 350.273 290.353 350.342 290.092 350.482C289.833 350.621 289.629 350.824 289.478 351.091C289.33 351.358 289.256 351.682 289.256 352.062Z" fill="#BDBDBD"/>
<rect x="282.557" y="163" width="16.6076" height="169" fill="#B8C7EE"/>
<rect x="257.646" y="292" width="16.6076" height="40" fill="#325CCA"/>
</g>
<g clip-path="url(#clip5_1082_4792)">
<path d="M347.288 356H346.18L349.384 347.273H350.475L353.68 356H352.572L349.964 348.653H349.896L347.288 356ZM347.697 352.591H352.163V353.528H347.697V352.591ZM354.963 358.455V349.455H355.934V350.494H356.054C356.128 350.381 356.23 350.236 356.361 350.06C356.494 349.881 356.684 349.722 356.932 349.582C357.182 349.44 357.52 349.369 357.946 349.369C358.497 349.369 358.983 349.507 359.403 349.783C359.824 350.058 360.152 350.449 360.388 350.955C360.623 351.46 360.741 352.057 360.741 352.744C360.741 353.438 360.623 354.038 360.388 354.547C360.152 355.053 359.825 355.445 359.407 355.723C358.99 355.999 358.508 356.136 357.963 356.136C357.542 356.136 357.206 356.067 356.953 355.928C356.7 355.786 356.505 355.625 356.369 355.446C356.233 355.264 356.128 355.114 356.054 354.994H355.969V358.455H354.963ZM355.952 352.727C355.952 353.222 356.024 353.658 356.169 354.036C356.314 354.411 356.525 354.705 356.804 354.918C357.082 355.128 357.423 355.233 357.827 355.233C358.247 355.233 358.598 355.122 358.879 354.901C359.163 354.676 359.376 354.375 359.518 353.997C359.663 353.616 359.736 353.193 359.736 352.727C359.736 352.267 359.665 351.852 359.523 351.483C359.383 351.111 359.172 350.817 358.888 350.601C358.606 350.382 358.253 350.273 357.827 350.273C357.417 350.273 357.074 350.376 356.795 350.584C356.517 350.788 356.307 351.075 356.165 351.445C356.023 351.811 355.952 352.239 355.952 352.727ZM362.335 356V349.455H363.307V350.443H363.375C363.494 350.119 363.71 349.857 364.023 349.655C364.335 349.453 364.688 349.352 365.08 349.352C365.154 349.352 365.246 349.354 365.357 349.357C365.467 349.359 365.551 349.364 365.608 349.369V350.392C365.574 350.384 365.496 350.371 365.374 350.354C365.254 350.334 365.128 350.324 364.994 350.324C364.676 350.324 364.392 350.391 364.142 350.524C363.895 350.655 363.699 350.837 363.554 351.07C363.412 351.3 363.341 351.562 363.341 351.858V356H362.335ZM366.86 356V349.455H367.866V356H366.86ZM367.372 348.364C367.176 348.364 367.007 348.297 366.864 348.163C366.725 348.03 366.656 347.869 366.656 347.682C366.656 347.494 366.725 347.334 366.864 347.2C367.007 347.067 367.176 347 367.372 347C367.568 347 367.735 347.067 367.874 347.2C368.016 347.334 368.087 347.494 368.087 347.682C368.087 347.869 368.016 348.03 367.874 348.163C367.735 348.297 367.568 348.364 367.372 348.364ZM370.774 347.273V356H369.768V347.273H370.774Z" fill="#BDBDBD"/>
<rect x="347.949" y="263" width="16.6076" height="69" fill="#B8C7EE"/>
<rect x="372.86" y="197" width="16.6076" height="135" fill="#325CCA"/>
</g>
<g clip-path="url(#clip6_1082_4792)">
<path d="M436.196 347.273H437.457L440.423 354.517H440.526L443.491 347.273H444.753V356H443.764V349.369H443.679L440.952 356H439.997L437.27 349.369H437.185V356H436.196V347.273ZM448.722 356.153C448.307 356.153 447.93 356.075 447.592 355.919C447.254 355.76 446.986 355.531 446.787 355.233C446.588 354.932 446.489 354.568 446.489 354.142C446.489 353.767 446.562 353.463 446.71 353.23C446.858 352.994 447.055 352.81 447.302 352.676C447.55 352.543 447.822 352.443 448.121 352.378C448.422 352.31 448.724 352.256 449.028 352.216C449.426 352.165 449.749 352.126 449.996 352.101C450.246 352.072 450.427 352.026 450.541 351.96C450.658 351.895 450.716 351.781 450.716 351.619V351.585C450.716 351.165 450.601 350.838 450.371 350.605C450.143 350.372 449.798 350.256 449.335 350.256C448.855 350.256 448.479 350.361 448.206 350.571C447.933 350.781 447.741 351.006 447.631 351.244L446.676 350.903C446.847 350.506 447.074 350.196 447.358 349.974C447.645 349.75 447.957 349.594 448.295 349.506C448.636 349.415 448.972 349.369 449.301 349.369C449.511 349.369 449.753 349.395 450.026 349.446C450.301 349.494 450.567 349.595 450.822 349.749C451.081 349.902 451.295 350.134 451.466 350.443C451.636 350.753 451.722 351.168 451.722 351.688V356H450.716V355.114H450.665C450.597 355.256 450.483 355.408 450.324 355.57C450.165 355.732 449.953 355.869 449.689 355.983C449.425 356.097 449.102 356.153 448.722 356.153ZM448.875 355.25C449.273 355.25 449.608 355.172 449.881 355.016C450.156 354.859 450.364 354.658 450.503 354.411C450.645 354.163 450.716 353.903 450.716 353.631V352.71C450.673 352.761 450.579 352.808 450.435 352.851C450.293 352.891 450.128 352.926 449.94 352.957C449.756 352.986 449.575 353.011 449.399 353.034C449.226 353.054 449.085 353.071 448.977 353.085C448.716 353.119 448.472 353.175 448.244 353.251C448.02 353.325 447.838 353.437 447.699 353.588C447.562 353.736 447.494 353.937 447.494 354.193C447.494 354.543 447.624 354.807 447.882 354.986C448.143 355.162 448.474 355.25 448.875 355.25ZM454.03 358.455C453.86 358.455 453.708 358.44 453.575 358.412C453.441 358.386 453.349 358.361 453.298 358.335L453.553 357.449C453.798 357.511 454.013 357.534 454.201 357.517C454.388 357.5 454.555 357.416 454.7 357.266C454.847 357.118 454.982 356.878 455.104 356.545L455.292 356.034L452.871 349.455H453.962L455.769 354.67H455.837L457.644 349.455H458.735L455.957 356.955C455.832 357.293 455.677 357.572 455.492 357.794C455.307 358.018 455.093 358.185 454.849 358.293C454.607 358.401 454.334 358.455 454.03 358.455Z" fill="#BDBDBD"/>
<rect x="460.051" y="171" width="16.6076" height="161" fill="#325CCA"/>
<rect x="435.139" y="240" width="16.6076" height="92" fill="#B8C7EE"/>
</g>
<g clip-path="url(#clip7_1082_4792)">
<path d="M526.727 347.273H527.783V353.511C527.783 354.068 527.681 354.541 527.477 354.93C527.272 355.32 526.984 355.615 526.612 355.817C526.239 356.018 525.8 356.119 525.295 356.119C524.817 356.119 524.393 356.033 524.021 355.859C523.648 355.683 523.356 355.433 523.143 355.109C522.93 354.786 522.823 354.401 522.823 353.955H523.863C523.863 354.202 523.924 354.418 524.046 354.602C524.171 354.784 524.342 354.926 524.558 355.028C524.773 355.131 525.019 355.182 525.295 355.182C525.599 355.182 525.857 355.118 526.07 354.99C526.283 354.862 526.445 354.675 526.556 354.428C526.67 354.178 526.727 353.872 526.727 353.511V347.273ZM533.95 353.324V349.455H534.956V356H533.95V354.892H533.882C533.728 355.224 533.49 355.507 533.166 355.74C532.842 355.97 532.433 356.085 531.939 356.085C531.529 356.085 531.166 355.996 530.848 355.817C530.529 355.635 530.279 355.362 530.098 354.999C529.916 354.632 529.825 354.17 529.825 353.614V349.455H530.831V353.545C530.831 354.023 530.964 354.403 531.231 354.688C531.501 354.972 531.845 355.114 532.262 355.114C532.512 355.114 532.767 355.05 533.025 354.922C533.287 354.794 533.505 354.598 533.681 354.334C533.86 354.07 533.95 353.733 533.95 353.324ZM537.863 352.062V356H536.858V349.455H537.829V350.477H537.914C538.068 350.145 538.301 349.878 538.613 349.676C538.926 349.472 539.329 349.369 539.824 349.369C540.267 349.369 540.654 349.46 540.987 349.642C541.319 349.821 541.578 350.094 541.762 350.46C541.947 350.824 542.039 351.284 542.039 351.841V356H541.034V351.909C541.034 351.395 540.9 350.994 540.633 350.707C540.366 350.418 540 350.273 539.534 350.273C539.213 350.273 538.926 350.342 538.673 350.482C538.423 350.621 538.225 350.824 538.081 351.091C537.936 351.358 537.863 351.682 537.863 352.062ZM546.681 356.136C546.051 356.136 545.507 355.997 545.049 355.719C544.595 355.438 544.244 355.045 543.997 354.543C543.752 354.037 543.63 353.449 543.63 352.778C543.63 352.108 543.752 351.517 543.997 351.006C544.244 350.491 544.588 350.091 545.028 349.804C545.471 349.514 545.988 349.369 546.579 349.369C546.92 349.369 547.257 349.426 547.589 349.54C547.921 349.653 548.224 349.838 548.497 350.094C548.77 350.347 548.987 350.682 549.149 351.099C549.311 351.517 549.392 352.031 549.392 352.642V353.068H544.346V352.199H548.369C548.369 351.83 548.295 351.5 548.147 351.21C548.002 350.92 547.795 350.692 547.525 350.524C547.258 350.357 546.943 350.273 546.579 350.273C546.179 350.273 545.832 350.372 545.539 350.571C545.25 350.767 545.027 351.023 544.87 351.338C544.714 351.653 544.636 351.991 544.636 352.352V352.932C544.636 353.426 544.721 353.845 544.892 354.189C545.065 354.53 545.305 354.79 545.612 354.969C545.919 355.145 546.275 355.233 546.681 355.233C546.946 355.233 547.184 355.196 547.397 355.122C547.613 355.045 547.799 354.932 547.956 354.781C548.112 354.628 548.233 354.437 548.318 354.21L549.289 354.483C549.187 354.812 549.015 355.102 548.774 355.352C548.532 355.599 548.234 355.793 547.879 355.932C547.524 356.068 547.125 356.136 546.681 356.136Z" fill="#BDBDBD"/>
<rect x="549.316" y="195" width="16.6076" height="137" fill="#325CCA"/>
<rect x="524.405" y="254" width="16.6076" height="78" fill="#B8C7EE"/>
</g>
</g>
<defs>
<filter id="filter0_dd_1082_4792" x="0" y="0" width="608" height="427" filterUnits="userSpaceOnUse" color-interpolation-filters="sRGB">
<feFlood flood-opacity="0" result="BackgroundImageFix"/>
<feColorMatrix in="SourceAlpha" type="matrix" values="0 0 0 0 0 0 0 0 0 0 0 0 0 0 0 0 0 0 127 0" result="hardAlpha"/>
<feOffset dy="2"/>
<feGaussianBlur stdDeviation="3"/>
<feColorMatrix type="matrix" values="0 0 0 0 0.560784 0 0 0 0 0.611765 0 0 0 0 0.686275 0 0 0 0.06 0"/>
<feBlend mode="normal" in2="BackgroundImageFix" result="effect1_dropShadow_1082_4792"/>
<feColorMatrix in="SourceAlpha" type="matrix" values="0 0 0 0 0 0 0 0 0 0 0 0 0 0 0 0 0 0 127 0" result="hardAlpha"/>
<feOffset dy="9"/>
<feGaussianBlur stdDeviation="8"/>
<feColorMatrix type="matrix" values="0 0 0 0 0.560784 0 0 0 0 0.611765 0 0 0 0 0.686275 0 0 0 0.1 0"/>
<feBlend mode="normal" in2="effect1_dropShadow_1082_4792" result="effect2_dropShadow_1082_4792"/>
<feBlend mode="normal" in="SourceGraphic" in2="effect2_dropShadow_1082_4792" result="shape"/>
</filter>
<clipPath id="clip0_1082_4792">
<rect width="528" height="48" fill="white" transform="translate(40 31)"/>
</clipPath>
<clipPath id="clip1_1082_4792">
<rect width="24" height="215" fill="white" transform="translate(40 163)"/>
</clipPath>
<clipPath id="clip2_1082_4792">
<rect width="45.6709" height="169" fill="white" transform="translate(76 191)"/>
</clipPath>
<clipPath id="clip3_1082_4792">
<rect width="42.557" height="153" fill="white" transform="translate(171.494 207)"/>
</clipPath>
<clipPath id="clip4_1082_4792">
<rect width="41.519" height="197" fill="white" transform="translate(257.646 163)"/>
</clipPath>
<clipPath id="clip5_1082_4792">
<rect width="45.6709" height="163" fill="white" transform="translate(345.873 197)"/>
</clipPath>
<clipPath id="clip6_1082_4792">
<rect width="41.519" height="189" fill="white" transform="translate(435.139 171)"/>
</clipPath>
<clipPath id="clip7_1082_4792">
<rect width="45.6709" height="165" fill="white" transform="translate(522.329 195)"/>
</clipPath>
</defs>
</svg>
