<svg xmlns="http://www.w3.org/2000/svg" xmlns:xlink="http://www.w3.org/1999/xlink" width="293" zoomAndPan="magnify" viewBox="0 0 219.75 67.499998" height="90" preserveAspectRatio="xMidYMid meet" version="1.0"><defs><g/><clipPath id="192699a10e"><path d="M 0.683594 0 L 218.816406 0 L 218.816406 67.003906 L 0.683594 67.003906 Z M 0.683594 0 " clip-rule="nonzero"/></clipPath><clipPath id="8e27752d84"><path d="M 34.644531 23.851562 L 56.234375 23.851562 L 56.234375 43.207031 L 34.644531 43.207031 Z M 34.644531 23.851562 " clip-rule="nonzero"/></clipPath></defs><g clip-path="url(#192699a10e)"><path fill="#ffffff" d="M 0.683594 0 L 218.816406 0 L 218.816406 67.003906 L 0.683594 67.003906 Z M 0.683594 0 " fill-opacity="1" fill-rule="nonzero"/><path fill="#000000" d="M 0.683594 0 L 218.816406 0 L 218.816406 67.003906 L 0.683594 67.003906 Z M 0.683594 0 " fill-opacity="1" fill-rule="nonzero"/></g><g clip-path="url(#8e27752d84)"><path fill="#ffffff" d="M 45.585938 23.875 C 45.492188 23.886719 45.40625 23.929688 45.34375 23.996094 L 34.808594 34.527344 C 34.648438 34.691406 34.652344 34.949219 34.8125 35.109375 C 34.886719 35.183594 34.992188 35.226562 35.097656 35.226562 L 37.324219 35.226562 L 37.324219 42.71875 C 37.324219 42.945312 37.507812 43.125 37.730469 43.128906 L 53.53125 43.128906 C 53.757812 43.125 53.941406 42.945312 53.941406 42.71875 L 53.941406 35.226562 L 56.164062 35.226562 C 56.390625 35.226562 56.574219 35.042969 56.574219 34.816406 C 56.574219 34.707031 56.53125 34.605469 56.457031 34.527344 L 53.886719 31.960938 L 53.886719 28.445312 C 53.886719 28.222656 53.703125 28.039062 53.480469 28.039062 L 51.742188 28.039062 C 51.515625 28.039062 51.335938 28.222656 51.332031 28.445312 L 51.332031 29.40625 L 45.921875 23.996094 C 45.832031 23.90625 45.710938 23.863281 45.585938 23.875 Z M 45.585938 23.875 " fill-opacity="1" fill-rule="nonzero"/></g><g fill="#ffffff" fill-opacity="1"><g transform="translate(61.549624, 41.237195)"><g><path d="M 15.578125 0 L 12.03125 0 L 12.03125 -7.390625 L 5.09375 -7.390625 L 5.09375 0 L 1.546875 0 L 1.546875 -17.25 L 5.09375 -17.25 L 5.09375 -10.265625 L 12.03125 -10.265625 L 12.03125 -17.25 L 15.578125 -17.25 Z M 15.578125 0 "/></g></g></g><g fill="#ffffff" fill-opacity="1"><g transform="translate(78.694193, 41.237195)"><g><path d="M 8.75 0 C 8.582031 -0.3125 8.46875 -0.695312 8.40625 -1.15625 C 7.570312 -0.226562 6.492188 0.234375 5.171875 0.234375 C 3.910156 0.234375 2.867188 -0.125 2.046875 -0.84375 C 1.222656 -1.570312 0.8125 -2.492188 0.8125 -3.609375 C 0.8125 -4.960938 1.3125 -6 2.3125 -6.71875 C 3.320312 -7.445312 4.78125 -7.816406 6.6875 -7.828125 L 8.265625 -7.828125 L 8.265625 -8.5625 C 8.265625 -9.15625 8.109375 -9.628906 7.796875 -9.984375 C 7.492188 -10.335938 7.015625 -10.515625 6.359375 -10.515625 C 5.785156 -10.515625 5.332031 -10.375 5 -10.09375 C 4.675781 -9.820312 4.515625 -9.445312 4.515625 -8.96875 L 1.09375 -8.96875 C 1.09375 -9.707031 1.320312 -10.394531 1.78125 -11.03125 C 2.238281 -11.664062 2.882812 -12.160156 3.71875 -12.515625 C 4.550781 -12.878906 5.492188 -13.0625 6.546875 -13.0625 C 8.117188 -13.0625 9.367188 -12.660156 10.296875 -11.859375 C 11.222656 -11.066406 11.6875 -9.953125 11.6875 -8.515625 L 11.6875 -2.96875 C 11.695312 -1.75 11.867188 -0.828125 12.203125 -0.203125 L 12.203125 0 Z M 5.90625 -2.375 C 6.414062 -2.375 6.882812 -2.488281 7.3125 -2.71875 C 7.738281 -2.945312 8.054688 -3.25 8.265625 -3.625 L 8.265625 -5.828125 L 6.984375 -5.828125 C 5.265625 -5.828125 4.347656 -5.234375 4.234375 -4.046875 L 4.234375 -3.84375 C 4.234375 -3.414062 4.378906 -3.0625 4.671875 -2.78125 C 4.972656 -2.507812 5.382812 -2.375 5.90625 -2.375 Z M 5.90625 -2.375 "/></g></g></g><g fill="#ffffff" fill-opacity="1"><g transform="translate(91.703684, 41.237195)"><g><path d="M 12.875 -6.296875 C 12.875 -4.234375 12.429688 -2.628906 11.546875 -1.484375 C 10.671875 -0.335938 9.445312 0.234375 7.875 0.234375 C 6.488281 0.234375 5.378906 -0.296875 4.546875 -1.359375 L 4.390625 0 L 1.3125 0 L 1.3125 -18.203125 L 4.734375 -18.203125 L 4.734375 -11.671875 C 5.523438 -12.597656 6.566406 -13.0625 7.859375 -13.0625 C 9.421875 -13.0625 10.644531 -12.484375 11.53125 -11.328125 C 12.425781 -10.179688 12.875 -8.566406 12.875 -6.484375 Z M 9.4375 -6.546875 C 9.4375 -7.835938 9.234375 -8.78125 8.828125 -9.375 C 8.421875 -9.96875 7.804688 -10.265625 6.984375 -10.265625 C 5.898438 -10.265625 5.148438 -9.820312 4.734375 -8.9375 L 4.734375 -3.875 C 5.160156 -2.976562 5.921875 -2.53125 7.015625 -2.53125 C 8.117188 -2.53125 8.84375 -3.070312 9.1875 -4.15625 C 9.351562 -4.675781 9.4375 -5.472656 9.4375 -6.546875 Z M 9.4375 -6.546875 "/></g></g></g><g fill="#ffffff" fill-opacity="1"><g transform="translate(105.364837, 41.237195)"><g><path d="M 4.921875 0 L 1.5 0 L 1.5 -12.8125 L 4.921875 -12.8125 Z M 1.296875 -16.140625 C 1.296875 -16.648438 1.46875 -17.070312 1.8125 -17.40625 C 2.15625 -17.738281 2.617188 -17.90625 3.203125 -17.90625 C 3.796875 -17.90625 4.265625 -17.738281 4.609375 -17.40625 C 4.953125 -17.070312 5.125 -16.648438 5.125 -16.140625 C 5.125 -15.617188 4.945312 -15.191406 4.59375 -14.859375 C 4.25 -14.523438 3.785156 -14.359375 3.203125 -14.359375 C 2.628906 -14.359375 2.164062 -14.523438 1.8125 -14.859375 C 1.46875 -15.191406 1.296875 -15.617188 1.296875 -16.140625 Z M 1.296875 -16.140625 "/></g></g></g><g fill="#ffffff" fill-opacity="1"><g transform="translate(111.798496, 41.237195)"><g><path d="M 5.421875 -15.96875 L 5.421875 -12.8125 L 7.609375 -12.8125 L 7.609375 -10.3125 L 5.421875 -10.3125 L 5.421875 -3.90625 C 5.421875 -3.4375 5.507812 -3.097656 5.6875 -2.890625 C 5.863281 -2.679688 6.210938 -2.578125 6.734375 -2.578125 C 7.109375 -2.578125 7.441406 -2.609375 7.734375 -2.671875 L 7.734375 -0.078125 C 7.066406 0.128906 6.375 0.234375 5.65625 0.234375 C 3.257812 0.234375 2.035156 -0.976562 1.984375 -3.40625 L 1.984375 -10.3125 L 0.125 -10.3125 L 0.125 -12.8125 L 1.984375 -12.8125 L 1.984375 -15.96875 Z M 5.421875 -15.96875 "/></g></g></g><g fill="#ffffff" fill-opacity="1"><g transform="translate(119.997555, 41.237195)"><g><path d="M 8.75 0 C 8.582031 -0.3125 8.46875 -0.695312 8.40625 -1.15625 C 7.570312 -0.226562 6.492188 0.234375 5.171875 0.234375 C 3.910156 0.234375 2.867188 -0.125 2.046875 -0.84375 C 1.222656 -1.570312 0.8125 -2.492188 0.8125 -3.609375 C 0.8125 -4.960938 1.3125 -6 2.3125 -6.71875 C 3.320312 -7.445312 4.78125 -7.816406 6.6875 -7.828125 L 8.265625 -7.828125 L 8.265625 -8.5625 C 8.265625 -9.15625 8.109375 -9.628906 7.796875 -9.984375 C 7.492188 -10.335938 7.015625 -10.515625 6.359375 -10.515625 C 5.785156 -10.515625 5.332031 -10.375 5 -10.09375 C 4.675781 -9.820312 4.515625 -9.445312 4.515625 -8.96875 L 1.09375 -8.96875 C 1.09375 -9.707031 1.320312 -10.394531 1.78125 -11.03125 C 2.238281 -11.664062 2.882812 -12.160156 3.71875 -12.515625 C 4.550781 -12.878906 5.492188 -13.0625 6.546875 -13.0625 C 8.117188 -13.0625 9.367188 -12.660156 10.296875 -11.859375 C 11.222656 -11.066406 11.6875 -9.953125 11.6875 -8.515625 L 11.6875 -2.96875 C 11.695312 -1.75 11.867188 -0.828125 12.203125 -0.203125 L 12.203125 0 Z M 5.90625 -2.375 C 6.414062 -2.375 6.882812 -2.488281 7.3125 -2.71875 C 7.738281 -2.945312 8.054688 -3.25 8.265625 -3.625 L 8.265625 -5.828125 L 6.984375 -5.828125 C 5.265625 -5.828125 4.347656 -5.234375 4.234375 -4.046875 L 4.234375 -3.84375 C 4.234375 -3.414062 4.378906 -3.0625 4.671875 -2.78125 C 4.972656 -2.507812 5.382812 -2.375 5.90625 -2.375 Z M 5.90625 -2.375 "/></g></g></g><g fill="#ffffff" fill-opacity="1"><g transform="translate(133.007046, 41.237195)"><g><path d="M 5.421875 -15.96875 L 5.421875 -12.8125 L 7.609375 -12.8125 L 7.609375 -10.3125 L 5.421875 -10.3125 L 5.421875 -3.90625 C 5.421875 -3.4375 5.507812 -3.097656 5.6875 -2.890625 C 5.863281 -2.679688 6.210938 -2.578125 6.734375 -2.578125 C 7.109375 -2.578125 7.441406 -2.609375 7.734375 -2.671875 L 7.734375 -0.078125 C 7.066406 0.128906 6.375 0.234375 5.65625 0.234375 C 3.257812 0.234375 2.035156 -0.976562 1.984375 -3.40625 L 1.984375 -10.3125 L 0.125 -10.3125 L 0.125 -12.8125 L 1.984375 -12.8125 L 1.984375 -15.96875 Z M 5.421875 -15.96875 "/></g></g></g><g fill="#ffffff" fill-opacity="1"><g transform="translate(141.206106, 41.237195)"><g><path d="M 11.28125 -3.546875 L 5.046875 -3.546875 L 3.859375 0 L 0.078125 0 L 6.5 -17.25 L 9.796875 -17.25 L 16.25 0 L 12.46875 0 Z M 6 -6.4375 L 10.3125 -6.4375 L 8.15625 -12.890625 Z M 6 -6.4375 "/></g></g></g><g fill="#ffffff" fill-opacity="1"><g transform="translate(157.533135, 41.237195)"><g><path d="M 12.859375 -6.296875 C 12.859375 -4.316406 12.410156 -2.734375 11.515625 -1.546875 C 10.617188 -0.359375 9.40625 0.234375 7.875 0.234375 C 6.582031 0.234375 5.535156 -0.210938 4.734375 -1.109375 L 4.734375 4.921875 L 1.3125 4.921875 L 1.3125 -12.8125 L 4.484375 -12.8125 L 4.609375 -11.5625 C 5.441406 -12.5625 6.523438 -13.0625 7.859375 -13.0625 C 9.429688 -13.0625 10.65625 -12.472656 11.53125 -11.296875 C 12.414062 -10.128906 12.859375 -8.519531 12.859375 -6.46875 Z M 9.4375 -6.546875 C 9.4375 -7.734375 9.222656 -8.648438 8.796875 -9.296875 C 8.367188 -9.941406 7.753906 -10.265625 6.953125 -10.265625 C 5.878906 -10.265625 5.140625 -9.859375 4.734375 -9.046875 L 4.734375 -3.796875 C 5.160156 -2.953125 5.910156 -2.53125 6.984375 -2.53125 C 8.617188 -2.53125 9.4375 -3.867188 9.4375 -6.546875 Z M 9.4375 -6.546875 "/></g></g></g><g fill="#ffffff" fill-opacity="1"><g transform="translate(171.194289, 41.237195)"><g><path d="M 12.859375 -6.296875 C 12.859375 -4.316406 12.410156 -2.734375 11.515625 -1.546875 C 10.617188 -0.359375 9.40625 0.234375 7.875 0.234375 C 6.582031 0.234375 5.535156 -0.210938 4.734375 -1.109375 L 4.734375 4.921875 L 1.3125 4.921875 L 1.3125 -12.8125 L 4.484375 -12.8125 L 4.609375 -11.5625 C 5.441406 -12.5625 6.523438 -13.0625 7.859375 -13.0625 C 9.429688 -13.0625 10.65625 -12.472656 11.53125 -11.296875 C 12.414062 -10.128906 12.859375 -8.519531 12.859375 -6.46875 Z M 9.4375 -6.546875 C 9.4375 -7.734375 9.222656 -8.648438 8.796875 -9.296875 C 8.367188 -9.941406 7.753906 -10.265625 6.953125 -10.265625 C 5.878906 -10.265625 5.140625 -9.859375 4.734375 -9.046875 L 4.734375 -3.796875 C 5.160156 -2.953125 5.910156 -2.53125 6.984375 -2.53125 C 8.617188 -2.53125 9.4375 -3.867188 9.4375 -6.546875 Z M 9.4375 -6.546875 "/></g></g></g></svg>